<mxfile host="65bd71144e">
    <diagram id="HIP3nbAZw_EuaXWnEj3U" name="Page-1">
        <mxGraphModel dx="1010" dy="938" grid="1" gridSize="10" guides="1" tooltips="1" connect="1" arrows="1" fold="1" page="1" pageScale="1" pageWidth="850" pageHeight="1100" background="#00ffff" math="0" shadow="0">
            <root>
                <mxCell id="0"/>
                <mxCell id="1" parent="0"/>
                <mxCell id="7" value="&lt;font color=&quot;#ff0000&quot; style=&quot;font-size: 24px;&quot;&gt;Triangle Calculator&lt;/font&gt;" style="swimlane;whiteSpace=wrap;html=1;startSize=50;fillColor=#ffff00;" parent="1" vertex="1">
                    <mxGeometry x="40" y="50" width="1090" height="590" as="geometry"/>
                </mxCell>
                <mxCell id="8" value="Please enter side lengths for your triangle" style="text;html=1;align=left;verticalAlign=middle;resizable=0;points=[];autosize=1;strokeColor=none;fillColor=none;fontSize=24;fontColor=#000000;" parent="7" vertex="1">
                    <mxGeometry x="30" y="85" width="460" height="40" as="geometry"/>
                </mxCell>
                <mxCell id="13" value="Calculate" style="rounded=1;whiteSpace=wrap;html=1;fontFamily=Helvetica;fontSize=24;fontColor=#000000;fillColor=none;strokeWidth=5;strokeColor=#000000;" parent="7" vertex="1">
                    <mxGeometry x="130" y="360" width="150" height="40" as="geometry"/>
                </mxCell>
                <mxCell id="33" value="4" style="rounded=1;whiteSpace=wrap;html=1;fontFamily=Helvetica;fontSize=24;fontColor=#000000;fillColor=none;strokeWidth=5;strokeColor=#000000;" vertex="1" parent="7">
                    <mxGeometry x="120" y="210" width="170" height="40" as="geometry"/>
                </mxCell>
                <mxCell id="34" value="5" style="rounded=1;whiteSpace=wrap;html=1;fontFamily=Helvetica;fontSize=24;fontColor=#000000;fillColor=none;strokeWidth=5;strokeColor=#000000;" vertex="1" parent="7">
                    <mxGeometry x="120" y="280" width="170" height="40" as="geometry"/>
                </mxCell>
                <mxCell id="32" value="3" style="rounded=1;whiteSpace=wrap;html=1;fontFamily=Helvetica;fontSize=24;fontColor=#000000;fillColor=none;strokeWidth=5;strokeColor=#000000;" vertex="1" parent="7">
                    <mxGeometry x="120" y="140" width="170" height="40" as="geometry"/>
                </mxCell>
                <mxCell id="37" value="Side a:" style="text;html=1;align=left;verticalAlign=middle;resizable=0;points=[];autosize=1;strokeColor=none;fillColor=none;fontSize=24;fontColor=#000000;" vertex="1" parent="7">
                    <mxGeometry x="30" y="140" width="100" height="40" as="geometry"/>
                </mxCell>
                <mxCell id="41" value="Side b:" style="text;html=1;align=left;verticalAlign=middle;resizable=0;points=[];autosize=1;strokeColor=none;fillColor=none;fontSize=24;fontColor=#000000;" vertex="1" parent="7">
                    <mxGeometry x="30" y="210" width="100" height="40" as="geometry"/>
                </mxCell>
                <mxCell id="42" value="Side c:" style="text;html=1;align=left;verticalAlign=middle;resizable=0;points=[];autosize=1;strokeColor=none;fillColor=none;fontSize=24;fontColor=#000000;" vertex="1" parent="7">
                    <mxGeometry x="30" y="280" width="100" height="40" as="geometry"/>
                </mxCell>
                <mxCell id="43" value="mm" style="text;html=1;align=left;verticalAlign=middle;resizable=0;points=[];autosize=1;strokeColor=none;fillColor=none;fontSize=24;fontColor=#000000;" vertex="1" parent="7">
                    <mxGeometry x="300" y="140" width="60" height="40" as="geometry"/>
                </mxCell>
                <mxCell id="44" value="mm" style="text;html=1;align=left;verticalAlign=middle;resizable=0;points=[];autosize=1;strokeColor=none;fillColor=none;fontSize=24;fontColor=#000000;" vertex="1" parent="7">
                    <mxGeometry x="300" y="210" width="60" height="40" as="geometry"/>
                </mxCell>
                <mxCell id="45" value="mm" style="text;html=1;align=left;verticalAlign=middle;resizable=0;points=[];autosize=1;strokeColor=none;fillColor=none;fontSize=24;fontColor=#000000;" vertex="1" parent="7">
                    <mxGeometry x="300" y="275" width="60" height="40" as="geometry"/>
                </mxCell>
                <mxCell id="50" value="" style="shape=image;verticalLabelPosition=bottom;labelBackgroundColor=default;verticalAlign=top;aspect=fixed;imageAspect=0;image=data:image/png,iVBORw0KGgoAAAANSUhEUgAAAjsAAAFUCAIAAABN/moeAAAgAElEQVR4nOzdZ2yk2X7n9++pHFmBOefczc5hOkxPDndGN1hhJUuGZQvelYF9bcCvDBgwsIBfGPYuYMBrycauZWklS1dXundyT+icA3Mu5lTFyjkdv2Dd6ekekk3OsJvd5PmgXzTJeqrOwyo+v+c55/+cI6SUfMcTXyqKoijK7hJCrP1Hs7vtUBRFUZQtUomlKIqivBxUYimKoigvB5VYiqIoystBJZaiKIryclCJpSiKorwcVGIpiqIoLweVWIqiKMrLQSWWoiiK8nJQiaUoiqK8HFRiKYqiKC8HlViKoijKy0EllqIoivJyUImlKIqivBxUYimKoigvB5VYiqIoystBJZaiKIryclCJpSiKorwcVGIpiqIoLweVWIqiKMrLQSWWoiiK8nJQiaUoiqK8HFRiKYqiKC8H3W43QFH2tVyObEaGwyKVwuHAZEav3+02KcqLSl1jKcpuymaIRBgfp/cBy8symZBS7nabFOVFpRJLUXZTPM78vPjon+Vf/oV8eF/4/WK3W6QoLy7VK6goP1A8TjyGwYiAdBqtDoMBoxGtdhtPks0Si+LxMNCP10sqiZSInYitaJRoBKcTnZ54HCHQarfdPEV5oajEUpQfKBBgdhpXMRpBwI/FisuN243ZvNstA2BlGc8kBw5itbG0hEZgtrxAzVOUH0AllrJfpFIsLeLzEQoiJTo9Tgel5VRVwtauabJZ0im5sCimPQwNMTMtgwHefldUVjI7y/QUy8uysVE0NFLfQFU1paXbbuTqKpF7JOIIQWUVxSU4HFvdNpsllZLT02JqkvFxpj0yGOJf/rmoq2dkiOEhFhZkY5NobqallfJynK5tNCydxufF58Xrw2LG4aSyEptd1Ykoz5VKLGVfCARYXGCgn9kZfD5yWXR6ystp70CnxV602ZVHLkc6TSxKOCwDfoaGePiAG9elfxW9nkOHcbuJxRjo5/o1amppbeXgIbq7aWnFYsFswWRCq31KX182g8/H8DChIMEgQHsHbW20tGE2YzBsvGGWVIp4nHBIrvp48IAH93l4X4ZCWCyEgmQqCQTW2kxtLZ1dHD9JWxu19dismM0YTWg0mzUvFGJlhdFhpjzMzmKzUVpGZ6dsaKSmVgixM92YivJUKrGUfeHi5/z6n+TUFNkM9iKikcLQTls7E+NceF10H1h/QymJRpmZ5sZ1OdDP+Ch+v8zlcLrEgQN0dnHmHNXV1NZJqxWnS4yNyPv3uH+PklLq6jh8VPQcortb2mxCv3HqAIEAv/qltFjIZslkkHk++4Rjx8WHP6O7m5raDZvn9zPl4d5d2feQoUHCYQkUl4hjJzh8mJZW3MWcOSN1OlxuMToib9/i7h1KSqip45Uz4mAPzc3Sat2sedeu8MXnDPTJcAS9nkQCJC4X73/Af/OvpNEodOpKS3kuVGIpe1wsitfH3Tvy9i1cLmrraG0jkWBliXv3GBoknaKllXUTa2kJzwRTU4yNyv4+VldJJSkppapKNLfQ0kpLK7V12O0UFQGiyEF9g/BMyMVFYlEmJgiH5ZSHkSFa22hsoqR0w4u5XI5wCIeD9g6EIBym9yEP7kudThTZ10+spUUmJxkbZWxUTozj85FIUFlFdY1oaaGjk45OSsswm6mpJS+Fw0l9vZgYl3NzRCMMD5KIMzkhGxo4eIj2dixWdI8fEsJhlpa4cZ0b1xAaKitpbilcsA4OUHyT4ydoaaOi4se+TYqyFSqxlD3Ot8rtW4wMk0zy2hvirXc4dRqNholx/ud/I2/f5MZ1fvqL9bcdGeav/0revsn0FAYDHZ2cO8+rr4mDPRSXYDAUOtOEQGsWLa00NfP2O/hXxfgYd+/IW7e4e5svPsdi5r2f8OFPOXlqw8QyGKipFe/9hP/8T6ROh2eSf/u/8uA+f/938vgJ8crZdTYZHuZv/l956wbz8ziddB/g9TfEyVO0d1JcvGHzlpdEXy+3b3HnNlevyI9/g8XCn/4Zjv+CqmpstsdeYmmJb77m1k25tMTPfiHeeZcLrxMMcvc2/+P/ICfG+ejX/OL3VGIpz4lKLGWPc7k4dBizSSwvU1GBVkt/H/E4Ux5WV0kmicXIZtffNp0mEhbxuMzmsOix2ykpFS63tNvF98vENRo0GgCrjdIyXC4sFgwG8jkiERIJcnk2uTvYZKK5leYWnC6h01JaRkcni4tyYR6fD58Xh/PJMod0inBYJBIyl0Wnw26ntAyXG7ttnSr2b5tX5KC2jikPFos06MnlCIdJJtdvWyrJqlfGY5hMHDgo29qFyYTLRWcX/+V/LfQ6ug9QV/fUN0FRdoZKLGWPs9uxWnG58K4wP4dnkqUlEnF8XkKhQlVFPrf+thYz5RXU1qHToTegNxCNsrSI1SIdTrH2zDp9IRvSKRJJYlECAVZWCARIp7DbqapCp6eiEkcRm4z3GIw0NFJTi8mERoPdTlMzgwMinZbBIH4/VuuTiWWxUFFObS0GA1YrQCjE4oI06HG5hd2OxYpWWwiqZJJ4nEScYBCfj0h0bTSu0P7iEozGwiO/K5nE5yWToaiI5maqqqUQwmSippaf/gyjkbLyH/rGKMr2qcRS9rhcjlRSfvoxn3zE/DzhEOk05eUUFWE0YLUhvBtu232QklJGh8XwMMPDctrD3/6NvPg51TW0d8jDR8ThI5SWFXrSllcYHeHebTkwwJSHaAQpqW/ktdc5fEy0tlJX/2Sf23fp9ZSV4Xb/9ksDZeWFL9Npkkny+Sc3OdBDaRkjw2JwgL5epqe4f0+ujdX19Mgjx0XPIRwOTCaA+TkG+unvk6MjeDxEwkhJZ5fo7Kari84uyivWqUiMx5mfK0Sa3S6+fYBeT2nZOgmnKM+USixljwsGmRzn1k3u36O4hIZGysooK0enZaAf78pm2zqdOBw4nFTV0NDIyDDDwwQD+LwEAizMy4lxce48VdWEQjy4z+2beDyEQxiMtLZTVUVbO+0dor0Tp/Ppt+7K73Qb5rKEgkSjEtAINJp1bhorNM9BRSVV1YyPMTmBz8fCPJEwc/NybFS8/Q4VFczOcuM616+xtEg8htFA3QFqa+nopLWNpmaKHOs3T+bJZEmnSSVJJMlkMBoBEgnGx4jH0WlpaKS0bCtvhaL8WCqxlD1uZZlL34j+PplM8trr4p33OHUarZapKf7t/yJHhp+yuRBUVFBeztFjIhxmZYWb17l6ma+/lHdvo9fLTFocOMjYGF9+weVL0uXmYA/vfyCOHZcdHZgtQq/f0u1KuSzhMNFo4ctEgrFROTsLoDcUugrXb14l5RWcOEk4zPKy+PqivHyJmze4egWLRVZXC62WLy/y8a+5ekVWVdPTw2tvilfOcLCn0LBNmqfVYjaLWEyudQ9GoxgMCIHfz0e/losLmM387u8LlVjK86ESS9njtFpMJnRahMBkKozWTExw8zqDAyyvbFYN8a21Y7rZTHk5p05TX8+F18XkBIuLdHZTVkE2xzvvcfioqKujtp66OkrLhMWCVrfVu2vDEb7+Smo0wmQilWJygvv38K7gclNRQWnZZrNLfLd55y+Ipmb55ltMTxMMiNo6LBYaGnj3fY4eF42N1NVTVU1FxZb69FxuDhxkdobZGa5fk0aTOH4Cn4+BPm7ewGjkzFlhsW5pBxXlx1OJpexxJjPlFRQ5EIJVHxPjaDT0PuT2LZaXSacA0hlSKfT6pxzEDQYMBoqKaG0DmJxgfIy1SDCbaWhEp6OuDofzh7QzlSoMRNntIhplbo75ecxm6huoa9jSXE1rzXM4aGsXqaScnhbzc1RVY7HQ2Eh1DXodtfXbmPYJcLs5fJTxMREIyMEB9HqZy4r5eYYGmfLQ0Sla27f3hIryY6jEUva4kmJOnpR3bvPwPh9/JL+8iNlCJg3gLhYgx8cIBlhZpqwMo2kbz1xVjctVmOKopAQJQhSGeX4Ak5HmFqJR/t3/JjOZtduzOHqM8xdEZ9f2nkqjwWgS9Q1UVGK1otXS0FSYEn67zSsp4eRJImHMFjE4ID/5iE8+kqkUQuB2i6PHOP1KoUxRUZ4DlVjKHrd2jXXhNfQ6VlaIxchmcJdQWirKykgkxPycPHR4w4GizZ7ZVCjD+5HNq6jkzbdFXZ1sayccobiYfB6bnY5OurrFgYObVRiua21hEYsFi6XwnR8cKgYjBiOHj2Cx0Ngk5mald6VwJVfXwLFjj4obFeU5EE+seKoWQFX2qlSK+XmCAeJxmpqoqt7tBq0nFmN1FSkxGHC7f/gV2zMSCLAwj9MpHQ7MFqGW2lKeD/Hb0WCVWMp+kcsRj5NOkc1iL3p0/fFCyWZJJmGtZ+/FW31xbZL4tQEz3ZaLShTlR1KJpSiKorwcvk0sdc+6oiiK8nJQiaUoiqK8HFRiKcoLR8ot3desKPuNSixFeeEEgywvk07vdjsU5QWj7sdSlBdIOk0iQX8fC/OUlVFXT3PLbrdJUV4YKrEU5QUSCTM1xd/9DV9elFYrv/hd/rv/XqhFPRRljUosRXkhSEk2w8I8168yOCCnPOj1eCbxeSly7MDkGoqyB6iTN0XZffk86RTBoBwfk998zcICQpBOEwoxN/toCRJF2efUNZai7D7vCp5Jblzn9k0ePpCZDEUOohFCQUZHcTgpKdntJirKC0BdYynKbsrlSCbxTHL9Gl98xr17xGNUVdHVjdVGMMjQIIHAbrdSUV4M6hpLUXZTKkUwyL27XPxcDg4gBM0tvPGmcLpYXpL+VXofyLPn1Px9igIqsRRlt+RyRCJMeeh9yI3rcmIcIWhq5ux5Tp9BCJxOJiYYGSEY3O22KsqLQSWWouyCfJ5EgtkZ7tzm048ZHiIUoqGRo8d4+x3R3EpgFZeLbIbpKYJBslm0WjVXurLfqcRSlF0QCjHl4ePfyJs3GBzAbhenz/DOuxw+SksLNjuxKLV1YnJSRqOsLDMzTVUVJvNut1tRdpWqvFCU5yqfJ51mZpo7t7l2hYE+ohFq6zh3nvMX6DlESWlhdeOGJqqqhBAsLkrPZGHdLEXZz1RiKcpzlckQjfDwAV98xsgwySQVlZw8xetvUlOD+bdXUWYzbW3U1AHMzzI2KhOJXWy1orwQVK+gojwn2Sz+VcbHuX+X69fkyDA2O13dHDvB6TPU1WOxPhqpMplobKK6CgRLS0xPqWssRVGJpSjPhZSkUng8XLnEr34pF+bJ5Th2XJy/wNvvUl2D2/3Y4w1G6uqoqESnxedldlYllqKoxFKU5yKTIeCXN65x9Qoz01htNDXz4U85cYq6OsyWJx+v1WKx4nDiLiaRZGWZZIJcDq12N1qvKC8GlViK8mxFoywt4ffJ6SluXmdiHASNjZw+zbHjtLRiNq9Tti4Eej0OBzU1TE8RCrGyQjiMy7Ub+6AoLwaVWIrybC0v8cVnjAwxPsbgAJksNTWcOs3rb4rauvXj6ltFDlraCAZJJJicpLZOJZayr+33xJKSTIZQkMVFYlEyWRwOSkupqOT7ixLlcsTjJOLE4+s81Vo3jsXyqNzru5JJfD5WvQSDOBwUl1BRiV6/83ukvDjyeeJxpjxc+hrPJMEg9iLa2nntdQ72iJY2bLan3BTsdtNzSExOyPk5xkZlS4vo6n5erVeUF8++Tqx8nlSKpUU55WFkRAQDpFKUlNDUTD6Py43V+tjjs1m8XhbnWVgA+eSzmcxUVVNV/WRiSUk8zvISQwN4plheoqyMhkYOZCkpxW5/tvuo7JZ8nmSSmRn6erlzW/q8GAwcOyHOvcrv/r50uTEYnv4kbjc9PVz+mvFRxseYn5eg5r1Q9q99nVjxOHOz/D//gb6HZLLSaESrweejqIj2Dn76c3H+wpOPH+jj6mWuXpH5/JPPVlrK2fPi3KtUVj72/VyOB/e5doWvvpSpJCYT6TRWG42NvPeBePe9Z7uPym5JJJib5a/+g/zqIv5VgCIHBw7Q2YXdLnRb+8tzuujsxukmmWJmGu/KM22yorzo9nVihUPMzDA2SjBIZxfFxQgNvQ9YXmFhnkNHOP/447VaioqoqKS5he8nlstNaRmWx4u+1k6079/l+jWCAapraGlhcRG/n75e2jtlPC6MRlUAtqek00QijI9x/x5XLjM0SCaDTofMk5cylxWpNHrDOt3O32cyodfjdmE04F9ldZVUEp1efWCUfWpfJ9bqKjPTWCycPcef/hklpaRT4uuv+PQTfv0r+f1Fiex2zpzj5Cmy2XV6ZoQGnY4nzp2zGaIReec2Y6O88aZ45z3Ovcr4GLdu8KtfynCIQAC3e/2hL+UlFYvhmeSzT/jkIzk1RSZTGC6NRBgbo7ZONrcIrXZLo5gaDRoNLjcuN0tLBAOEI9jtKrGUfWpfJ1ZFBYePkEqKYJCvLpJKyUBAjgwzMkIqhfzeVVQmg8+L14vP+/1hLIxGSkspLaX4O8vFRmMsLohIRBqNdHbT0IjdTmMjRgPl5aKmjqIiVX+xd6wl09IC16/y4L6cn8NiobKS8nLm5lhaZGwEAbGo7OwSrW3U1W9pILO8nLo6/H4CfkaGaW3FVPHsd0ZRXjz7OrFsdioqKC5hcZFrV1ldxe9n1UsotE6nH5BJs7jA8BDDQ+S/F1mOIjq60GgeS6xEHJ+PVBKzmbo6iovRaHAXU+SgvhGdDqNRLSGxF0hJNksqic8rBwe4dlWMj5HJ0tRMewcdXeLBPW7dkKs+7kVZWWZ6Wi4vi5NpqqowGNDpCxfoWi0aDfk8uRy5LNksmSx6PU4nOh1+PwP9lJRQrhJL2Zf2dWJ5Jrl5g1//kwwFaWunuVlYbSwsMNAnb1xf5/HZHKEwCwuMjUr5vcRyuXEXi9q6Lb10KMRgP8UlNDRIg3Gr4/DKi2ktrnxeZqb55mtu3eDhQ2kw0NXFa6+LI8doaqG2lrJycfWKnJ3BM8nKCn0P5cMHorWN2lrKyigpxe3GXoTVSjJJNILfj8/Lygq9D5mfJ53C5+PhAw727PYOK8ou2ddHysVF+nqZm8Xt5vgJamrRaonFNqwf1uspKaGlFSH4fmLZbNQ34HA89k2jCacTg4F4nMlJqqpxuvB5GR7iy4scOizLy9F+b/RLebnkciQSTIxz/SqXv2FyEo2Gri5OvcLxE7S0UlqK0YjVil4v+nrl9BQrKwwNEo1Kz4Qor6TYjcuNw4HVhtlEMkksRihEIIDfz5SHxQXSafyr9D3E79/tHVaUXbKvj5SrPmamMZk52MPPfiFMJjkzzeIC01Pr9wpazBw4SFc3+fx6lRcCjebJLj67jepqabYQDHDjmiwpoaaGhw/Fl1/wD38nM2nOnhffn1NOeblks0Sj9Pby63+Wnkm0OroPiHd/woe/g8OByYwQ1NdTVkZZOS2t4uYNefsmQ4NMTuCZlELw7T94dD4k5aN/+TxSkk4TCsmAX/UjK/vUvk6s+gaOn+Di59y5zb/5n6SUhMN4JgvHiHicUAir9TsXQAKN2FJR8rd0eooc4s23MBrl4iL/8P9x6RuWFmU8zqHDoutA4QpMeUnl84SCTE1x9w7XrjA7g95AUzPnX6WrC6cTvaGQQxoNJhN19VgsNDaJnh5GhllZwbsivStEY8RixGNks4Vn1mqxWrFYsVooLUOvZ36eVR/RKIEAPi8Op6rZUfadfZ1YtXWcPMXMNAP9XL5ENotWS2UV7e24XDidpFI/tu5cq8Vs4cw5jCbx+adyeoqRYXRaaut59QIHD2Kz7dDOKM9dNksyweQEd25z8QvGRslmaWnj+HFOv0Jj05OL3Gu1FBdTXEx7By0tzEwzPc3MlJielsEgoSChEOl04cF6PUUOnA4cTurqhVbLvbtyaJBIBJ+XhQUsFpVYyr6zrxOruJgjR6muEQvzzM5gNOFwUFKKQU86Q2VloUDrR9JoqK3D6eLIUbG8xMoKDod0uymvwOV++ubKCysaYW6Ojz+SVy4xNoq9iKPHxbvvc+IUjY1PORcpKcVmp6mZZJJkUmSzrP37tjtaIwoDnDodJhOhEBarSCbl5ASzM4yNUl2DxbrZSyjK3rOvE8toxGjE5aa6hvp6jCastrXh8Z18FSGwWrFaqaigto5IGKtVmMwYDKqu/WUl82RzzExz4wa3bzE2RjpDfQOvvc7JU7S1Y7U+pfd47bP3bZ1OIEAwQCxW6Ax0uZ+8TysQoLOLwQEhpZyfk5MT4pUzz2rvFOWFta8T61s2G7aW5/FCdrua+nYvyOVJJuTwMJ98JAb6iUaoquboMd55j+qaH/IWLy4wNMjcLAYjNTUc7HnySdbGwMrLARYWmPLIZFKd7yj7jkosRdmGfJ6VFSbGuHWTWzcZHpIOh+jq5ugxXjlDZdW2Bz4jEVaW+eIz7t6R1TUinebSV/KD3xEaDWXlmEyFh+n1lJVRXILJRCDA4iKZzI7vnKK86LZT96Yo+1s+TzqFZ4JrV/jVL7l9k2iEpmYuvMZbb3OwB5dr25Wf4RCjI4wMy/k5rFYEjIwwMsLMNMnko4fpdDgcuN24XKRTrPoIh0ildnb/FOVFp66xFGWr0mmCQW7fkt98zeQkJhMdnbz3E86eo7ziydXUtigYoL9XlpaJ5lZef4NVH1IKg4HpaVrannyww0lrmxgZkckk09NUVlFT++N3S1FeGiqxFOXp0mlCQWZmGB3m5g0mJ9EImpo5e5aeQ4WynW3dqPetaBSPh/oGOjqoqcVkorGJxUVmpkkmnnxwsZvug6ysEI8zPibr64VKrGdHSpJJUkmSSaw2NQL9QlC9gorydIk4Ux6uXOJv/xO3b+JfpbiEo0d5+13R2IjZ8gPjCognWFxAp6W8HKOhULwaCcvZGZlKPvng4hJ6DuEuJh5jdISF+e8vIaDsmHyeSISFRcZGWfXtdmsUQF1jKcrmpCQQYGyUzz+Vd28zNIS9SBw+Kt96m4OHaGrBthOn3ukMyRT5PNksiQQGIxYr2u/dZeFy09WN00ksxugI8/M78NLKRjIZRoa5fYs7N+VPfyEaGne7QYpKrB/MM8nyMkB5OY1Nu90a5dnI5UinmZ7i/j2uXmFinEiEri7OXxDvvS8rKoXB+GNfQqfFYiGdlsGAyGQKQ2U6HY717l6326lvwOkil2d2lpUVclk0WnVj3zORy7G0SN9DLl6k+6DccIZs5TlSvYI/0H/6a/71n8t//efyr/9K9czsWckkPh+3bvLVRUaGSaepreXMOc6ew10i9DsxIaTFQlU1iQRTHplIEI8zPyelFA7HOmvQ6PUUFeFyYbUQixIOkUjIb6ciVJQ9T11jbVsmQzLJzLQcGgSYmSEcxmxWk7ztKek0wQCjozy4z9XLjI9htdLUzJGjnDhJfQMm085c2bjc9Bym9wF3bpPJyECAgX5evSC7u4Xte8WHGg06HaWllFcSGycYZG6Wyioczh1oyUshFsXrIxImkQAwmbDZKCmhyLHhJtEoifhjM2A9QW/AbkNveMqUbNksi4tEwmQyuNy43ZhMG26SzRAIkt709gOrDefGb1w6TSJBMEAkQjJJURElJdhs/PjL+peaSqxtSybxeR/dK5NM4PNRWqoSa++QkkSC6Sm++ZJf/oNcWkSr4/Bh8cabvPMeVTuaEMXFHD8hhgbkg/vcv0c6TTLJ7/4eR49Js2X9SCyvoK6O+VmCQcbGhNW+LxJLSjIZllfoe8jc3NptADidVNfQcwiLBa1u/XOIVR/LS8Ri5HLrP7PdTn2DdDjQ6TY8B8lmCYcZ7Gd6mnic1jY6uygrw2pd/0VTKaY9BIOb7VFN7YaJJfNEIywtMz7G/Cx+P/UNdB+gpgaXG+0+7gdWibVtfj+9D/H9tnZodZXeBxw5qopf945kkqUFrl/j3j0WF7FaaWvjg59y9BhVVezsemZmC1VV/N6/EMdOsLSETktJKQd7MG1QLi8Ezc2i+4B8eB+fl75eWd8gavdBjXsgwD/9ktu3pWcCnQ6NhmiUfB69nlOv8MoZTp4SxSVPbiUld25z+Rs5N/fYHdnf1dzML35XdHRu9s5+9SWhkPR5CQQIBXG5aGzm578QB3twudd5p/x+/vZv5ODgZnv0kw9ER+c630+l8Pv55is++o30r5JMoNdz8zoWKwd7OH5CnHv1B978tweoxNq2YICBAQK/XQc24Gegn4ZG6ht2tVnKj7a2ZGIiwdwsvQ+5cR3PpBTQ2Mjxk5w6TWMTRUU7/KIGAwYDR4/R1c38HAYDNbVPOYOuraO1VZjM0uejt5ez53e4SS+gaITpKS5+IR8+QKulvoGyMkxm5ucYHCCVIpelrZ3vJxaQSBAM4l8tdCR+X3ExqdSGV2Br5mZAUlqGyUTcwMQEE+OUl2O1ctixTmJlc4RCT6mJj8U23NmBfq5clhc/o6KS0jLcxXhXmJzE6yWVkp1dQq/fp+vqqcTatlCIsdFH1/trX4ZCu9om5UeTkmwWv5+5Gb66KK9dpa8PnY62di68Ls6cpbLq0Sx/z4LRWMiqzeNKCEpKqaxCry9Usn178rSHzcxw5zaTExQV8eFPxYlTtLaRz/HVl/zv/056V+h9SCSy/rbHT1BWJsJhNipRcbno6JQO52a/9/IKTr3Ce++Liir8q/zVf5Qf/4bL30ibje4D4vsjAsVu/uAPxetvbrZTLa3rf9/r5dOPZO8DjCZ+/1+IN96iuJiHD/jqIjdvyIf3mZnGYqVkvXje81RibVswwGD/o8OE309/3744auxtuRyJBBPjXPqamzeYGMdi4eBBXn2NAwdpasZuf8rIfDhMwE8gsP65fFk5ZWWYzYRCTE48efR0OnG5tzotodGIvYjiEhYXCPgJBYnFMJt/+F3MLz6Hk45O/uCPBJK2dmw2QkGSCcIhpCQaIxBYP5CEoLKKoiIymQ0rLwwGHE5h2rSiobqG4ydEazvl5cSraG0Vt4rl3Bwez/oXZ2YzXd0b9kOu2eh6PRZlaIhwmNpa2jvp6sZiQafDYqG6RphMlJWzeWv3MJVY25PP4/czPCTz+fFeyjkAACAASURBVMLxKxwiFJQBv8jnn36CrLyY8nnSafx+Bgf46NdybhYpOXREvPEWf/CH0mxmK4XswQBjI4yMPBrjXHtmKZGS4yc4dgKtloV5Pv+UVOqxgGlpoa0DsxnjFo5EGg1mMxUVTE/hXSEQJBhkb3cTVVVRUcGx4/hXmZ9nfo6lJUJBxkZJpUinSKc3DCSTCa2GXB42uA9Fq8VoQKPdtAHVHDqM04lej8NBVTXVNeLhA7myvP7rarTYi7BsOuS5UdVfMsncLPk8zS2iorywNGh9A7V1HD+JlLjdaDdt7R6mEmsbMhn8qwQDSElZGS4XQCDI8hKBACsruN17+aixhwWDzExz/RqXLzE9hdFIXT1nz9HVjdkitnh0SCTw+pieYmGhcGjM5Vj1EY2STmOzic5uNBrGxvjsE2m2UFz8aFuzWZRXkN3yAiJWK+0dYm5WLi8xO83EOEVFe/mzl82wsiJ/8888eMDCHLEY+TzuYrJZXC4i4Q03lJIvPuP6Nbm0uOEVT0MDP/lQtLRSVr7h8xQVUVn5qFvY4aCykpGhDR+/tMhf/Hs5OrLZTr35tviv/mzDn9rtVNc8VgwiRKG8aw9fTD+VSqxtSKeYnS1MdVFRSVMzrE1+scTKCnMz2Gx7+aixJ6VTxOMMDXL/Hpe+ZnICrY62Do4d5+RpGpq2cdOC0YjTRWWV1OkBshnCEUZH8HkLp8k6LeEQczMMD3PoEHX1j7YtK8NmR7vlP0eLlfYOhofE3Ttybh7PJF3de7ladXWVoUG++JzhIQwGHA7cxVRXF2aq3by3NhRiaYGZmQ0rLwwGYrENR7nWCPHYRVguRyZDfuPJAzIZlhaZntrsOf2rm/107dL8W9ksySSLC2QyuN3Yi/ZpuaBKrG1IJBkfY3YGKamuFT2HANIZHtyXszOMjlLfWDg2KS+LUJipST77WH79NVMebDZ6Donf+Rlnz1FVvb13s7qGklJOnhK5LEA4jMfDwrzUajl9Rhw9RkkpI8P4V5F5zr3Kv/pvH/UgG4wYDdu4OdRqpb2D6mqkZHmRuVky6W009aUzMcGVy2J8TDoc/PTn4tgJWtvQ67h+jb/895tNOiPg+AkqKkRk48oLp4u2NulwbNahHwmztEhFBTobwOIiQ4Nyo1oPwF3MH/yhePOtzXZq7ZR3I8EAE+MyEim0KpFgaZFf/r0M+HnlrFgbW92HVGJtQyrJ5AQL81JKamroOQywtISULMxLz4TYfKBVeaGs3ZE6P8eVK9y/z8w0GkFzC2+/y+Gj1NZhsWxvtECvR69/FHLT0zy4J9NpGpt4+13aO9AIVn2Ew1hteFe4dYtsBquV8gqqqjeb/uD7jEaqqnAVk88zNys9k2Jvr+64dk2TTuN0UVlJTS2lpUx5mJlhZoZIFJd7gy0FFRXY7WQyj12yfJfBQFGRMG5aCDo2xhefc+o0xcWEw4yNypUVKiqpq19/AMxspqPzKUtubjSHsslMfYOYnJBjIwwOUFGBu5iJce7c4tZNLBbsdmnZ4O7yPU8l1jakUkxPycXFQgFS9wGA/j6EYGmJqSmZSu7Tj9HLRUryeVIpQkE5Osylr8X4GKkk9Q0cOcJbb1NZ9aN62KQkn6O/T37yEUB7B+fP43QRDOL1EgxhtTExwT/9o4zHhNtNWzunzxS6lLc4RKHXU1yC04FOx/Iy09MyHhf5/J4d4TCZfjtQJ0mnCYeYm+XmDe7eZmGeVAopyeVY9zdQ5NhsDqctmhznyy+kwSDKylhYYHyMTJr2Dto71u+T1OupqPyBr2W3c+AgwSBjozx8gN1OYzN3b/HZJ8zPc+AANbUbJ/RepxJrGzIZFhcJBjCZcBThdgM4ijCbCQZYXCC9p3tm9oZ8nlwO7wqeSa5f49ZNeh9Ki4Wew5w7J06foboG84+77yqZZHWVKQ9Li7z/AWfOFs7fMxnm5+T8LLEIej1ut9Bo5PwC9+7i9Yp4jAM9hQ/VFjldtLSysEA6xfIylZV79kBWX8+x4/LqFSbG+L//UhY5MBoJh0in6eoWMzMym8W7QsC//k3EP57Zgk7HP/69TKbI5dBqOXOeDz/k+Mmdn56tvJyf/0K6XHx5kfFROT6GwUAoRCxCz2Hx6gXcbvT79ci9X/d7++KxQqEgUFWNy10oXXW6qK5heZlAAL+feAzLvhwRfabWzqBjUSIR0hmEwGzCbse6/VHDtUL2iQluXOPLL5jykE5z+DCnXuH0K7S07cCsFuEwQwMsLCA0dHWL7gOFg5pOR3k57R04XXQfEC2tRCL09zE8yEC/dDpFXcP2EsvtpqOTWKwwC2J1zZ5NLJebtnYuvIbDgddLMkE6hbuYsjJRVc3srNBopNO5Ufn6D6TTUlnFoSNkMlRUUlFJfy+BAGYTDY10dHHyNHV1Wy0l3TqbnQMHkRK9nvFxFuYIh3G76Ojg7DmOHMNmf0ot/h6mEmurvF6mp0kkcBfTc/hRaXJxCT2HuXeHZJKZKWpqUCu/7bhcjmRCTk+JkRECAbRaqqpoa6e5ZftPlSURp/eBvPg5Q0PodLS08P4H4q13KCnBZN6B1q76uHpFrvqoqaGpmcqqwniY3c5PPuTseWIxUVyC20U+L27fJpGQy0s8fCDfemd7vcrFJRzsEZMTMhhkeIiGRtradqD9LyC9nqpq8Wf/Ep+XhXliMbRamppxOtHqyGYRCOtOV+oajBw/zoGD/NEfC50WBCvLpNNYzNJmx2YTJjO6Dabf/TG0Wkxm0XOYtnYiEelfZWFelJRR34DZhNG4pbsD9yqVWFu1MM/YiIzHcThob8fpKnzf6aS9nYkxAn7GxmRDo1qrdCetTaM+Mc6XXzA3J0NBgHyeTIbGJg4cEKfPULO1eWDXbqeb8jA8xPWrTHnQ6Wht5fwFDhykvAKjcWfGgUIh+noRgp7Dorjk0ThHJsPcnIhFKXJgNhUG3p0OXC4WF9hkGqGNrM2Ze+mbtZEVuby0Z4dRhUCnw+nEZMLhJJ1GI3AXb+mG6x/zoibzo5OYfB6TaW3uXaHTPaWkfgde2oTJhNUmnE5KSp+yNMn+oRJrq+bn5egI8Rh1dbS1i28/PQ4n7R3i6hU5P8foCF3daq3SnSQloRADA/zVfySZoLgUt4t4nOFh7t2lv1dW14itJNZap+L4GLducukbxkaJxWhs4tgJ3nxLNDVj3omrKyCfJxxmYoyOLnoO4fjOmH8qxdAg/lVq67BaKS5BSnJ5ZB4BQmz7c7PWK+h0kkzgmWRlee9/9taO47tCo9mFW6DWClDtOz3/8stLJdZWLcwzMkI8jttNT48sLi4cGoqL6Tkk3W7icUZHmJ/f3WbuNfk8S4useikp5cAB3nwbmx2fV1y7yr270jO54QTYTwiFmBzn00/krZuMjuByidNneO99Dh2hqemHjIdt1NpIhFCQeAKLhcqqx7oZ8zkiYdnfz9Ur/N4fUFlJKi3mZunrLdwRvN0DosmEuxibjXyehQX8anJLZa9TifV0a9VlPh9LiwBOF1U1j2YMs1qprsblKtS4+7xkMmi1e7bO+PkzmSgppb2DqmoMBhIJEQ6TThOLEQyRftrMRvkcmSxTHm7f4tZNxkZJJmg4wvkLnDlHQ8NOrncl80QihENk0tjsVFU+dkGg01FWLkwmeW+cK5fIpEmlGR+T6QwHmjh+fNtF2DodFjNlZbiLC1OFra5isz3bvrL9Jp0mGiWbIS/RatZ66tRf965RifV0a8P+4RDRKA4nDgcWs/i2F1unQ2MRRQ5psRIKEg6RSEizWajP9I7Q6WhpXTs/EMND/F9/wdKSXF5iZZlEYkulzJks0QgP7vPF54wOk05TWcnJ07z+BjU1O1Nq8a28JBomEiGfp6iIyippNj3qpjNbOHmaWEz0PZSffsLf/x0SWVlJ1wHOnOXV137IbUNCQ209La0Eg2uzJNDcrBJrJ8VieCaJRkinMZspLaOpWSXWrlGJ9XShIJOTwueTej2NjVTXIB7/vApBdTVNTQz0r02AJpqaKS3dpebuLbkcnknu3eWzT0inpc1GZ6doamJpifExudFMcWuyGXw+Rke5e1vevMH4GE6XaGjkxElOnynE1c4Wemk1lJRx9jxGkzh4sLCU+6OfanG7OXESvV4sLhAMSr2ekhLqGkR7O0WOHzKYLwSVlaK2TvY+xOtloE8WF6+zFK/yw+RyLC7w6cfMzspohOJijh4TFZXY7Sq0dodKrKcLBAtRZDLT0rr+ErE1tbS2MTnB6ioD/bjdKrF2RjbLyAiXL/HVRdnZxZGj1NeTzzM8RDSCx7PhhlKSTDI5wZVv+KdfsbwEcOwEr17grXeorCpMvb+zNFpKSigp4eSp9X6qwWqls4vOLsJhYjFhNkmTCaPphwfn2vQrdXXCaJDeFfr7CpOHbUTmyebIZMjlkBKjEZ1u/y5dsbl8nnicKQ9ffiFHRwiFKK8gm5XnXhUGw46V6ijbohLr6SJhxsfk2lQXLa2i9nuJJQS1taKllW++lsEgY2Py0OE9XrL13OTzLC7g8+Iu5sQpfvYLodXKoUFGRwvDihvJZPCvyuvXuHaV2RmKHLS08P5POH6SmtrdP9xYLBgMaLVCo/lR13kaDXV1NLdIowmfl/7+wk3u65KSVFoG/MzPi2CAdIbmZsorKCpSVwzryGaZGKe/n9lZIpHC2jGTE9y/B4Kmpt1u376kEuvpgkGGBvH7MRppaKSyap3HVFbR2IjJiH+VoQGCbz/3Vu5RQuAowulEp8Pnpa+XZILxcRYXiMURkEqSSmEwFI77+TzpFNEYszNysJ+b15nyoNXR3MzpMxw6QmMTdvvuL7y5Uzf0CIHTWVisxL/K7AyhEOk0ev2T+7i2yHJ/L8PDeCYL9UEjwzQ0cOAgZeWPFeIr2SzRCA8fcP+uDASwWLDZWfUxN8eVSzgcVFej16ukf95UYj1dwE/fQ/x+mpqpraO8Yp3jXVk5tfUYjMzM0PuQgKoz3iE6Hd0HWV7m5nV+/c98+rFMJArzwAJ5SSRCJILLhVZbmMwpFGJ6ii+/4KuvGB5CSmprOfWKeP0Nausw7/TY1a4zGLDahMslZ2fwrxIKkoijtT/Z15fN4l+V//D3XPyc+TlZUUlZGR4PDQ384R+LM2dVYj0mnWZ1lRvX5Z1bpJI0dNLUzJ1bLC3x+WeyoVEcPYbNrtbDe95UYm0mlyMeJxQiGsVqo6ISs3n9syqNBrOJyiqWFolGCQWJRLa9XIXyfRoNVVVceA2XSywsEPBjMFLkoKyMTBoJx09gsRTeFCmJx5mc5PNP5Z1bTE/hdtPZxZtv0dVNUzNFRXvxHRFYrbS1sbLM9DTz88zM0NqK9vGez4UFHtxjZBizhT/9MxoahdUiv/maWIwpj2zv2Fsx/qPNz3LrJp4JkikqKjh5khOnSMTp78O/ytAg9+5y6DClZbvd0H1GJdZmsll8PlZXSaUoL6e2drP77Y0mamqY8hDysLqKz0tV9V48Pj5fGg3uYtzFHDrC0iKLCzicOJw4netcQyQSLC7Q38fXXzIzTTpNZ5d49QI/+4Uscuzl02GbjfYOJifwTDI7y5SH+vonC/eXl+jrFUtLsrqaP/oT0dQECItVjo2STG64dtQ+lM+Tza6tIcnsDDotbR2cOCXOnWfKIwN++noZHpbXroqKSpyunZ+7XdmESqzNpFJMjDM7Q15SXklzi9hkxN5spqlZjI/JtaPG+Pgzn/dsv3G5sVjR6dYfPwiHmZvl0jdcucT4OHodDY2cOk3PIWx28Uxngdt1VivtHeLBfZnPMz3FxASnzzz5mHCY5WVpsVBRQUlxofbk7Hlx5Cj5/KOZnZVUEq+Xe/e4+Ln0+2lp5d33RM8hSks5d15EwoyOyNFhZF52HxClZZSWqtGs52dP/x3/aGuJNTMtZZ6qKtHa9miqi+8zGqmppaRESClnp+X4mDh0CNTYwM4xGtc/A0iliIQZ6OfeXa5dxTOJxUJbG0eOcvIUjU3bWCnxJWWx0NRMebnI5+XCnJyZEpnvLdWWSROPI8BgKBS15/PYbOi0pFLPdl7Xl0swxL27DPSxtERJKW0dHD1GTS0WK23tzM/R1ML0FB4P9+9SVo7LtZcv31806nO6mVSKiTE5O0M+T3UN7R2brX1lMFBejtNFXjI7w8SYTKoliZ+LWJTJCS5+IT/5iLlZLFa6D4h33uO116mteyEqA581s4WGRkpKyedZXGR+TmYy6+2zJJ0mnS6sI7VWrr2yzKqf1lY13WqBd4Uvv2BkGL2etnaOHKWppVDaU15BeycnT5HN4Jnkxg1Kyzh2TCXW86MSazOZNHNzLC0hJeEQiwtotbiLC4v+ZbOEw4SChQlyFhfk4CBDgyBZWmJ2Vi1J/MxJSSbDwgJXLtP7gOWlwmp4H/6UnkNUV+/BysCNCIHDQU1toVAoEKC07LEuAXsRZeViaFAuLzM5gU6LTs/tWwwPEYlIo0H8gMXG9ph8npUVRkfo7ZVeL/YiTp7i5Clht6PVFlY8qa7hrXfEqk9OeZjyyIF+MT5GXf2j5YeUZ0ol1oYyGWIxVlYKt2TOzcn798TCAiWlhU7/dBr/KisrLC+xvCQXF5iaYnkJjYZQCO8KsRiZjBqYfSbWsiqRYGVZ9j3k2lXh8SAlDQ0cP8H5C1RWYtuhGdlfFg4njU2MDBGNsbRIReVjiVVcTEsr9+8RDnH3NpEwJjM3ruHxYLFsdQr8PWztEzUxTu9DJifI5Whq4tAR0dmF6beTkmg0lJRw4iS9D8SdW9LrZXRE3r0r9AYczv1ybrS7VGJtKBxieYl0qvDlnVuMj0mDobBiDb/9iK91s6RTpNIkE4Vl31IpUmmWl6muoURN8rbTCrPpe5ny8PVX3LxB30NpttDVzWtviNOvUFy8Hztqikvo6BCLCzIaYXiI8koqKh79tKEBg5H5ee7c4m//RkqJlCRTNDXxxluiuXn32v1iyOdJxLl2RV7+hniMtg7OvyoaG5+cQtBgwOWi+wCnz4qrl+TcLL/6pXQ4REvrM1mPWHmCSqwNrXWexOOYTNhsSInPSypFLvfYw/R6jKbCAn1WK3odwOQEiTieCWpUYj0Da/fJjY9x/SpXLjPlwWjk0GFeOcORozQ2Y7Xux1KCkhK6D3DvHkuLDA/R3gFHHv3UaqO2hgsXhNstpz0Eg6TTlJXR0SWOn6C8cvfa/WLwrzI2Rl8v01Po9bS1ce5VKiuf7CPRaDAYaG3j7Fk8E4yPMdBHfx9dB6ip2XeX9c/f/vuz3rKFBYaHiEWx2qhvKExy418llXrsYTYb7mJq6qippaZGaDTEosTjMhBgeJimFrq6d2kH9q5slkiE/n4+/USOj6HTc7BHfPCh/J2fYbbs327YsjIO9uByMj7K8JA8eZonliQ2mXn9Tc6dF4mEDASIx0V1zb6oTNmK2VmuXmF0lFC4cOP5ufPSbFn/V9PUJDWCy5fweFhaoq+XpmbsdpVYz5xKrA0tzDM8JKMxWlr54z8R9iL0elJJcvnHHqbXYzRitWGzYrWRSrG6yu1bzM0xMiQPH1EHg52UzxMMMDnJ7Vtc/oaZaYxGmlt59QKtbcJs3te3bNvsVFVjthRmHF/1rf8wrQ6zWWi0OLL7qDJlE7ksySRDg3z+iVxaoKSEC6+L7gNs8nHSG4TLzekzhELym68ZHpL2Ilpbhdv9aNBLeRZUYq1j7f7/lWU5OUkqSU0Nb71LaemWFjWPx/H5cLtJJfFMsrwkpRSgPsQ7IJshFmd0lDu3+PIinkmZy9HWwclTnH6Fugb0+2/s6rtMJlxunC70BlZXWV0lGsVkerKDVKNBY9jvv6vvSiSZm2VwQD64jxA0t3DuPK3tm/2KtFqKijh2jJVl0ftArixz/y6jI1RWrb8akbJTVGKtY21C1UAA7woaDTYba6dOW2E0UlyMzYYQeL0EAmSzhdJY5UeKRJiZ4ZOP5JVLa8szcvS4eP8Djp+goWGzW+X2D62GujrR1MTYmAz4mZygrk4VXj9FwM+Vy3JogEyGmlo6ujh6jOrqp2xlMNLazvw8rW2MjxPwc+umdBdTWaXWH3+G1K92HfEYs7P4V8nnqaikohKjcavdTVotBkNhKynx+5mdUaXDP1Y+RzLJ5CRXL3PnNp5J8nmam3n9DY6foLmFvT1t4NZptFRVU1uHQY/fz8Q40ehut+kFJiXRKNNTXL3M2CgaDT09nH5FVFZtNrvNGo2GoiJaWnnjLerriUa5e4d7d/F6SSafS+v3JZVY6wiFGRlidRWjieYW6uq3N8ePENTW0dKG0YR/leEhwqFn1tZ9QErSGcIhBvr49BOGB4knKK/g2AneeofmZrWE+SMaUeiY0htUYj2dlKz6GB3l2hU8HoxGTp8R51/d0hKXQqDVUlfPT38u2jtIpXj4gLt3mJkmEnkurd+X1B/6OoIB+vqk14vRSEsrdXViW316GkFdnWhtwWTC66WvVwY2XhZW2Vw+z9IiN67zf/4f8lf/KEeHpdMlXjkjfv6fidOviMrKJ2co3+c0WpqaaG/HaGRlmf4+GQzudpteYNks9+9x4xqxOJVVnDhFSyslJduo3zGbqayiq5tDhylysDDPJx/hmXiWjd7fVGKtIxRiaJBVH0YjjY2ipmab11gaqmtobBJGI6s+BgcJqWusHySfJ5lkfIxrV/j4Nzy4TyJJWzsXXueNt+jqxuHcv7Xs69JoqKykphaTiWCA8THCYbWSyPqSSVZ9PLjPwwekUzQ08OoFGpqwbeeS3WDA6aTrgDj1CsXFeL1c+obREUIhstln2fr9SiXWOqIRJsYJBNDrqamR5RVyu3UT5eWyplYaDAQDTIwTCT+bhu516RQBP7dvycvfSM8kOi2dnbz3Ph98QHd3YRli5buEwGzGZsdsJplkcYFYlFxOhdY6fF56H9L7UE5NSSHo7OInH4rqqh/yVN3dvP2OqKoiHmOwX/b2Mvr/s/dez3Fl2Z7et9MDSJ9AAkh4b0mCvoquq1jVVdVV7TvuzJ3R1Vwp7hiFpIh51IOepZD+AIU0EaOYGM3VjVBc1923u5plSRYdaEAD74HMBDKRFul95tZDZjeLVTQAPQh8wRcCyINzDs7Za++11/r95vZ2r18Ie7WCDyAluRzRKH4fxQJGIyYLNTXbywoKQU2NMJul0UjAj2+DWJRsBo12r2Jwq2SzRCIsLzE1wbWrOJ3odPT2c+Ikw/toatnrenkkCiV6Pe0dhMOkkmxs4PNRX78bRUAeRdmzcXGBz86xsoxazcAg+/aLltatlgR/B4uV7h4OHRHRqJyZ5t5dWV8vzOZdqr3yQtlbYz1AqUQyQSTCZhilqlynLp6ic0WtoUYvrDZUKjY3iURIJL4r77THo5CSZILlRS58xd/8tbx1g3ic5haOHee990Vbx17f6xMwGOgfoNFBsciaG9cq37fL2s2UiqSScnpK/u63cn290jK87wB6/VMGGK2WOjsnTjFySKjVTE3wxedyfU1m0ntr2+fMXsR6gFyO1VXW3ZRKOBz09W+pa/ih1NTQ14ejCVlibY3V1T3zkS1RbgmYmeaffisvXpCrK1isnPkBf/Vv+fjHdHbvCeE8Gb2egUHR2EihyOqKXF4ml3/V5/Q6EYtz766YnSUSoaaGzi6OHpWtbc90TJ2OwUH275fNLQgFG17u3mFpSZRKT/7sHltnL2I9QC7HygouN8UiDgf9A88WsfpxOCiVcLtZWb4vA7/HoyhL3K4sM3aLq5eZnyeXo6NDnDgp3j3Lvv2itvbhNsR7fJsaPT091NdTLOB243TK/F7E+iP5PAE/V68wPUU6RXUVtbXU1qF/tg708p53/wAHDmAyEQxw47oYv0c6vZdceZ7sRawHyGVZXsS1SqlEo4O+fvHUM/rqGvr6haOJUgnXKkuLZPfWWE8inSYY4PooFy+wvEypSHMLR45x6DBmi9grC9wi1VW0tcvaWkolvB48axT2Ihbwx5bh5WXOfSrH7yJEZXfZ7xPPWNCrUKDRio5O8dEnorOTWIwL5+XVyzIY3Gsofp7sbQs+QD6P24VnXZZK2OtFRydVT2p9fxRVVXR0UmcXpZL0eKTLJfaygo8hl2Vzk9kZbt/m2hVWljGb6e7h8BGOv01H516pxTZQqTGahMUqLRYy6YrA4J65KCAl83PcuinX10kmUSjY3GRuls/PyfU10ddPnZ3aWiwWlNscGgsFNsME/CQTSIlCQSzK4iKXv+HYcXp6X8z17D72ItZ9SiWyWTweGQggBLW1NLds9bPFIsUipRJCoFCgVKLT0dRMbR0KBcEAnnWZzYhSaU+d4SFISSrF8hIXzvPbX0vfBhotBw+Js+/z3g9xNGI0vepT3FEoFGi1WK2i0SHdLjY3iWxir9/tEatswXrvrrx+jWQClQqVisgmUwnW3MzMyOFhhveJ/kF6eqmqQqFAoUAhEAqEqPwrH6fyr0RJUipRKpFKsrjAzDQz0zIaRaOhVMKzzmfnpN0uurrvf3yPZ2EvYt0nFsPrIR5DraZhm6Pkmpv1dUJBdDpstbS1Y7MBmIy0thEKEY/h9VJbuydL+hDyOfx+OXpN3LmN11spdfvJzzhwEIeDqj1Vi6fCaqOrm81NEgnm57FYMRpf9Tm9UhIJ/D4m7jE9RTpNewfD+8SaW/p8RCLMzrDh5d492dwsenqpb8Bmw1aL2VwxvqqpkRqtAHJZmUiKRJxEnM0IoSChEL4NFubl+hoBP6EQ2SylEgE/N0Y5dozh/disaPa2YJ+ZvYh1n80wbjeJBNXVdHZhNm/pU9ksqSR37zAzXVljqVSceQeNhupqzBa6ukmnSSZZc9PUvBex7lMqkcuRSrG+JsfvMnoN56pUq+jq5thxjhyjrQ2D4VWf5Y7FVktfP/OzJOLMzdLeQVf3qz6nV4rfx80bzM0R2aS2loOHeP8DlhbF0qJcWCAcIhDA62FxQS7MC7ud2jrq+CYmIgAAIABJREFU6rBYMRgxGKReX676kdksiYSMx0QsVnF4CAbx+1hfI5NBpaq4vGYyJOKsuZmclP0D4tARrHsR65nZi1j3CQZZWSGVwmiir19sUVIhGmV1mc/+IKcmOXZc+P3cvSPVKmE00N6J1UZ/v3C7ZNlkr6ubzs4XfBk7hLKlSziEy8nXX3H1MpOTUqult4933hUnTtLQ8JTtnHuUsdsZGhbfXJAry8xMc2DkVZ/Qq2ZxkX/8O+laxWTi2HF++CEf/5iAH6dTTIwzMyVnZ3CuEg4Ri8qFeZQqVEqUShQKFEoUCoSQgCxnAouyWKJUpFCgWKRQoFDAbKatnf4B6huE1yvnZrl7m7u3MZtkR6ewWl/1Ldj57EWs+2x4mZ+ViQQtLQzvo65uS58Kh5gYR6tjeL946wRuF5EIiSRuN45mamsZ3s/NmzhXmZ+TQ8N7mewK5UL2xQUufC1vXGd1BZORfQc4fYZ9++noQq/f1YbCD6WsxhKLUShgNFJbS539kT9stdHTg95AMsnSogwGdu+zl8ng9zE7zcQ48ThNzZw8zb79wmxGq0VvwGajr0+srcm5WdbdxGLEYsTjpNOkU6TT5PMPFKmrVKjV6KqoqsJchdGIwYjRSEsLff00NQuDgUBA1FTL2Wk2vEyMMzeLwYC9/tXdhTeCvYh1n40NOTdLMonZwuAQtVtbY22GmZqUDQ2ip48fvMPqCpmMyOdxuzl4iNo6BoewmJlJMj/LhlfC7h04/kRZ4jYQYGKCc3/As45QcPCQePcsP/8lej3avdXVg0hJsYDXw+1bBIPkcpVHy2ypLAK+j8lESxtGI/k8a25CIVkoiF1oLioliThTk0xO4nJhMtHSwvG3RFcXQlBdTXU1DgfFETIZMT/H6goeD551NrxshmW5biWVfkABQKuhqhqLBbMFq1U0NOJowuGgo5PevopVWyJOIi4+PydDIZYWuXun0vi1V4LxLOxFrPuEgjidFAuYTDia0G9tByWZZG2N1jbq7ajVFefyuVlKRZnLiTozTU2YzBSLOF0Egy/4GnYIm5usrnDlMpe/wemkqoqODk6dZmgYg2FPiu0hlGVtL3/D3/+t7OkVVdVcuyLX14TBgMOB6RF7rkoFjQ4aGvD52Ayz4cVqe7JX4RtGPofXIz87x93bKBQcOMipH4j6hu/OisoFlh0d2O2k02QypNPkcyKXI5+nUOTb6hVKBUolag0aNRpNZbGlq6KmBo2mMoGorqG7hx/9WFy6KN1uvv5KGgwMDaPVib0n/KnZu3MAuRzJRKWir7YWW60wGrfqaZvLVQwbtbpKOaxKRaEgM1lKEo0GowlbrdAbZLmmaDNMjX73GuZmsyQTTE5we4xLF3GuotMxNMThoxw9TnvHluqpslniMVIpcnmqdNTot2TBt6PJpFlewu0ilaoUsE1PseFlcQG9/tERS0lzs2hulX4/oTAuF1VVuy5i+XzMznD3Nr4NLBYOjHDkCGbLdydG5Zops+W51Uap1bS0cfZ9fBt4PSzMM36PhXlaWvdsB56evYgFkIizssxmGLWapmbR2Ljt4S+fq9SzFgqk0+h0GE2VbRghaGiguVnEonIzzNIinV1YbS/iOnYA0Qgry3z2qbx4AecqJjMHDoif/oITp2hs3OpgGo8zM43bzWaYRgedXQwOveGTgFSahXmpVPHJT8S772E0IqWIxVhYoLPrkZ9SqmjroKNTTIzLcIilRZqadtdwKSWzM4yOivV1qVTS1s7ICEPDsqrqZSTm6us5dZqJe8xOs7bOwgLnvxbv/3B3/QmeL2/0vHTLxGJMTxPwo9HS2UVL63ZMSKtpaCCZlJ71Sq32xoZUKDAZRfkgCgUtbXR2odUSDDA9tUsNHmWJXA63m0vfcO8ennXUGnr7+OFH7D+Aw0F19ZNve6lIwM/4XX79D9wZIxTi4nm++IzFBaJvtNluLovXS6FAVzd1dZjMNDQiJUsLj/NoVyppaqK5BbWqUnoQ201WbbkckQhjY1y7IqMRmlv44EPR3Sv0BvFyinrUagwGDoyIE6cwGHA5OfepnJsjHt8TG3xK9iIWlE2Hp2QggEZDZxdt7dtYY5Wr2JNJFhfk+hpra7icaDSizo5aBaBQ0NpKVzcaLYEA01PyzR5bH0qhQDLJhlfOTMlvLrC6TLFEczOHDnP2Pbq6t1oZWCziWWf8HpcvSa8XjYaZaTl6Tc7OEA6/+Mt4dRQKhEMU8tTVodOhVFJTQ6GAZ12mUo/8lEJBQwNNTag1BALMzMhdZS6aSOBycfeOnBivBPsffkhbGxrNc659yOdJp4jHSSRIp++7DwuBUsngECdPCbudcIjLl5iZxufbc3J4SvayggCJOIuLhMNoNLS109y8jTWWvYG3TohPfycvfM3MjIxssubmrbfkocPU1AhAoaC5mbZ2NBrCYRYXiSde4LW8nvj9zM9x8TxjNxkfl7W1YmCQ429x9DhNTduoDCwUWV0lkZCnfyAOH2FoGIVCBAKsuWlto+NN73Ur55yLRYSCTAaFEqvtcWL2CgVWG3Y7NTX4faws7S5j3PKaZs1FdTXtHaJ/gLaOrVZUbYsNL04nwQBKFXW1tHfQ0Hj/u7ZauroZGhaxmFxZZmJctl7io4/FnpjLU7AXsSiVSCQqe9q1tdjtWKzbmIJZzAwMsOYSxYJMJLBYaGxkcIimZspWkEJgsVJfj8GAbwOXk0Sc3SMwWG6uXJzn6iXOf826G1liYJATJzl4iPZtjiDFIl6PTCQYGGBwiK5u+vopFHA56R94YdfwGqBUotdTLLLhpbOL6moiEYqFJ0QsIaiqwmymvp5QiPAmoSCxGHr9G/74FQokEszPceE8Xi9GE8feYv8BLJbn3OSXzZJIcPcOd25XbmmpxMlTaHXo9RUhx+pqHM0cf5vNTbGyLOfnqK1leB81NXtmb9tmt0essvJCIoHXQ7GI1YrJvD2L2xo9VdX8y7/gR5+I5SUMBto7qaq6n3kojxomExYrHg9eT8WPeJe0ZeTzJOLcuS2//orFebQ6enp5/wPe/yEW67bNrkpFQiEScez1lfpAgxGFgtUVGQ6/yXdTrcZez4aXhXk5vE8oVfg2ZCaDzSa0Tyo5qa6hvUP4fDIUrHQadXa94YUq2SxuJ5MTXB+lUGBwkA8+5NCR568FnEiwvMiXn8tL33DylEiluHJJFouitpbOrsqvUyqx2Xj/hwQCnPuUlWU0Gk6cwmrZi1jbZrdHrEIBzzrlogmrjdY2qqvvB5J8nmCQUqnSZvjt4TWVIpUinUKjxWSSWp2os6NSodE+RJBQCKqqaW3F6yHgx+Nhfa2yu/AGk88RDFKWCLp2FbcLrY7+fs68IwYHsdnQaJ9mpl8qUSySz1MqISWFPFJSXfOGD8E1eoaGRSIhb90gm5NaLXduMzjI2ydlnf0JodpgoH8Q56rwbcjVVelcFa1tb/LtKpUIh7l8iXt3ZT5HXz9vnRAdnVtVCt0W0QhTU7KqirfeFmfeIR4jkRDA6iqNTRj+KD2sVlNnZ3CQd86KuVkZDHL5ojQYREsbu7Cn+1nY7RErn8e5ittNsUidnc4uqmsqC69ohGAQt4tCAYORpibsdrQ6pCSXxeVmw0MsRk0N9fU0NGKxYq9/5MNXXU1HF8tLbHhZc+Fcpc7+JkesYoFYnPk5ro9y+RuWl8nm6Orm6HHOvk97O7qnS+KLShtNPE4mg5Sk0hSKmCxvuMR7dTX9A6yticuX5K2bFPIUC9TWcvjIk9UXDQYGBrl7m0IB5yqrq/LtE2/yGJlO4/Vw9Yqcm0WlYt8Bceo0jY0vRKYyFmNuBpNZHDzMqdNsbhKJkojjXOXgofs/Vq6U6enlox+RyTA5zvXrNLXI02dEjX7PVnsb7EUslpfl6gqFAo2NDAwKg55slliMv/9bzn8pVSoKRdJpfvCOOHmawUGyOZaX+M0/cuumrNKhVILgL/6Sd89iND5Sr0GvZ2BATE/Ku3dYXZVLS+wfETXPZtT9OhOJsjjPuU/lzZsszmOrE/v28/En7D9AW8fTN7EqFNhsBPy4VmVHh2hpJRSUsSgmo3hq780dgUaD3c4PP2RoWKy7SWdobKStnaoqlE9ap+r19PZit1Mo4lnHs3a/mO2NxLnK3TssLpBIYLMxMiIPH6FG/0KCdDqFZx2zhYZGtNqyLRkbHqJRmU5/9zc2Onj3PTk9xeJ8pa95bIzBIZqaXsSpvZnsRSxcTtbWKBZpaBC9fdToSSRYWWFuRq6ucvgIUrK8xNwsuiqamyvJ6DW3rK6iqYVwiJkpZqZpaWFg8JHuGDV6enppaBTFklxfw+Uk/4YamRcK5HIsLXB9lFs3WVkin6eri9M/4PjbtLQ+02JIpaK1TQQCcmkBtVr6fOL2GMUi+/Zjf7Qm7BuAQlFJLLe24m0nl60MkVtBq8Nej9WGVkMohM9HPo+Ub2AyqpwunhznyiW8HvR69u2nrx9H04vKghYKJJKUSmg0FeNHpZKSlOVk9XcwGOjoZGiYhQUmx1mY54tz1FRTV4da/Qb+OV4Euz1iFfJ41vF6KJaw19Pdg0aD38fkBPk8Q0P81b8Rag0XLzB2S94Y5Z13xeICf/2f5c9+If7rv2TffsbG+E//Ea9Hjt2ktVU8KmJVV9PdQ309pSJeL+trb2zEymbZ3GRsjK++YH6OYpFGB2+9zTtnaWp61syMSkVvPxsb4rNz8vZthJCxGG+/zfG3ZEvrbnnj6+uBbQxwZccmsxmjicgmwSDZHKXSGyiNn88TjzF6TX71BfE4x/v5+Meiqxut9sXGg0KebIZSiUKRVAqNhuqah6RbVCqUSjFyiEAAl1MuLRIKyr5+MTiEfk9Oc2vs6puUyxKPEw6Tz2Gvw2SqqFjaajl2jPZ2kUqSzTE/x/g9mc1Q34BaTT5HNEp9A0PDWG1YrbS0koiz4X1cV6BCgUaDyYTdTjbHZph4jFztG2VLms8TCDA7zeiovHWDlRVq60TZnvHYWzga0eqedeBQKKit5dhxqqqE10M0itlMTy8NDTtvMyCbwelkzY3Hg8VCQyNtbZhMld3NXI5AgPU1nKsylxNaLe3tNDXT6NhquUowyIaXSIRwiGCA0Wsym6VQJB5naRGd9g10vvB6uHVDLi2Rz9PQyOAgR45RV/cCw5WuioYGMlnpcoruXtIpvF4ppTCbUD2sLlEI2js4eJixm5WRZPyebO8QR45h2o7p+a5lV0esZJJggGgEIXA0YTZXZp0WCxYLQGST819z8ybjd3E0YbYgJdksuRxWK03NAFU66uqIbBKJPG57oJwuMJlpamZlmUiEYJD6+jcnYpVKpFIsznP5Ev/0G4IBFEqOHuf0Gd57n4bG51OppVBgNDI4xOBQpfCyrf2ROrCvJ1IiJZFNvF7u3aVsb2G10dZONiu7urDXi2KRyCbjd5maZHaWVBKdjoFBjhzDZEajeeR8XEryOTJZ0mnmZ5kYZ2OjEva8HjJpSkXiMeZmqat7oyKWlJUqqi8/x7mCSkVPD0P76Ot7sWsXvZ7OTnw+ZmdlW7sIh1lZpqVFOhxC94hXu76egQH27Sccwu9nYpz6etnZJWoetizb4zvs6jvk9zM/TyKBXk9XN5bvOYSmM0xPyelJggGsNgp5AgE2Nx+Sod4iVitd3QQDJJMszFc8ud8Mshn8G1y5JK9dwe3GaqG3n48/4dARmlt41Nv7LFht6A07r0SwWCSblZ+f44vPicepqqLRIdwuFualZ53TZ/jRJ0QiTE3yX/6z9PuoqxeZtAwGmJrEtyFsVppbeZSbrZR4vSwvMTUlx25y7y7ZLNkM6XRlplUqEYsxPSV7esXwvpd75S+SfJ6An5lpzp9nM0xtHSdPiwMHUKlebD7QZuPIcfHp7+TVy8zNynQat4vhYY69JU2mh/9ipRKrjdM/EKGgvHuX2Vlq9Lx1AoNxq558u5ldHbHK5TrxOEYTAwPfNR3O5SgV6egQmYxsbSMUwuUkEiH7sNSfUilUKvnEd6O2loFBZqaJx5mbobOLvv7ndjmvhFKJbIZEguUlxu9xfZSVZaSks4u3T7D/AK2tW2qTLBRIpfB6WF9nYJDGP4rcFIusrxF5UIlRq8VoxGh8ZJ3L60wqyfo6d25z5zYjBxkYEj09GI0szONZZ22NUomVZe7cZsMrzBZOnqKQF16PPP81Lqe8e0dU1Tw8YkUj+HyM3eTeXTk9zcI8a24sFkxm6hup0gHMzxOLMjXJW2+/5Ot+saRSTE4wMY7Xg9VGTy/7D9Dato2Gv0iEYIBwmGKx4u9std13y0wmiEYJBEgkKBSwWqmtw2LBYKC7h8NHhCzJWAwp6e5m5ODjaj2EQK9ncIjFBdHRKYMBVle4dROjaS9iPZldHbE2vExPEY/R0MDQsPhOkiSZRCj42S/5OC9CIf73/1Vev8bHP374odQatFrxxNejzs7wPvHVl3LDy/Q0Bw8/nwt5VZQb1yJRnCt88Zk8/zXzc+TyWCwcOizePUtz81bXQLkcPh8XzvP5Ofk//nvxp4hVKHDnNjPTD/ywxUJPL9091OxAyYBIhKlJsbgoMxk++Ei8c5baWoaGuHdXfPYHmUwATE5w4zq2Wt49y7/57xCChXkRj0u/n9FR2d0renoecmSvl9FrfPo7eXuMUIh8DpWK1nYxMEhPT6VZ8D/+BzkxzvQkvo2XfN0vlnis3DKMlHR0cvgIPX3bM/XwerhxnfF7ZNJ093L4CAcPSl1V5aUOhZib5fqodK6SSokDIxw9xr791NbhqOJXf8ZHH4vFBTQauntQq59Q1aLT0drG8H6OvcXN62xu8s0F6us5cvSZbsJuYFdHrFCQlWWZTKI30PmtrKDTyc3r0u9HrRIffUyNnkScUhGdDpNJGg3odCwvc3uMnl6iMZYWpdEkmlufvCllsdLVhcFAKsXqigwGd3Z5W3nvammRz8/JWzdZWa6E+UyaeIJEAthSQVo+h9sl/+HvuH6NpaWKQyaQyRAMcn2U27dknf2+xI69XpjMOHZmF0s6zfqaVKtpaMDv5/Il4jGqq9BV8ZOfi7LTjd+HZ53ePmy1lbxWTQ2tbSKTkaEgmcx3jxmPs7rCNxf58jO5sEAui8NBcwudXeLIEbq6MZmpriaVoqMTl5NEgliMSISamucvXPTyCQaYn2dqAq9HarUcOMCpM8Jm29Kzl8vhcsrzX7GyQjCAViek5MZ1GfDj9XDiJHV2ohG++pLPz0mlUhQKpNPy6hXm5/jVn4mDh7HbUSqprqatDYVyq3WJQtDWxo8+FsGADFxnYV5OT4vlJersOzJz8NLYpRGrWKSQJxSSG14As5nGxvvJq1iU2RlmZykWZKNDWKw4VygUaGjAYsUep72d9TUunCeVZGFeul2cOCU7u8QTS7f1ehoclRqEDS/hoMxkxBNnZK8nhQKpJG43E/e4eB63i2i0oqaYyeD1yKUl4WiiqprHN0pLSTAop6f46gump8nnSKcr30ql8G0wMy0XF7Hb71fGa7VSrX7yivb1JJXCs04+j1rN0iIry3g9NDXT28ex47S1IwSRTRkKUnVQ/OmZLMv8uJzC7ZLZb0UsKUmlWHNz7SoXz8urV1AqqbMzNMzIQTFyiP377+uIb27S3sH0FLEY0Sh+Pw7Hjo9YUuJycvc2iwsylaLRwfB+cWBkS7bUUhKPyblZ/v7vyGZwNNHWjpR4PMzOkEjQ20dVNfPz3LzBjVGOn8DhIJtlYpz5Wbp7qKvDZqs4j2/Xp7GhkbdPcn2UmWn8fman5e0xceQoev1eb9Yj2aURK5Mh4GczTLFIUzONjSi+FTMaHXzwIxGJyIsX+A//pwSiEZqaxVsnsNup0vGrf8atm/L/+xv+8DukJJ2mrY19+2RN9ZMfNKWChkYaHayvEd7E662YQew4olFcTi6c58ollhYRAns9dXaRTLC8JMdukohLKcXbJxje97g3UEpu3eSrL/H7yD+4R5iI41knnaK1lf/2X4s/Lao0Gmr0O1VFNJ3G42F1mUCA8Ka0WjEaxb273L0jF+Z5511+9InIFyqW1t8hkyEUIpu9/xUpWVrk6hV++2tZTskO9nL0GGffE109D8zDAJWKjk7R0YnTKUNBVpcxmXbqbSxTFpkcG+OLz2QoRKODU6dFby8m05bq7opFXE4xM43bJY+/zb/6b0RjI/kcfX3izm255iaXw+/jy8+JRjh8VPzzP2dwiFJJ/MPfyS8/x7kq5+cZ3ieeLuprtWVJDrHm5vI3cnGBf/g7abWJ5pY9scFHsksjViLOwgKBAAolrW20tArVtyKW0Uh3N6dOC61WJpMUCwjBwCBD+7DaMBp55yxGo5ifk8kkNTXY69m3n9pa8dAOjO+gUNLSKlrbpNdLwM/CPFVVOyxiZTLEokyMc+sWo1dxOTEa6e2ntw+bjfU1hCAYZHYGq02q1cJmw2x5uDJTIk4gwJ3bLC7Q1AICr+f+d+NxPJ5Kr2s4jFAgJTYbBgNW604tBS4WSKdJJCkU6Oqib0A0NDA3y/Ii9+5itfHuexTyFEvwvZLUfJ54/H7veSpJOMytG1z+Rs7OUCrS1c2Jk5w8JUYOUVv73XuuUtHcQnMLKhV+P3OzdHVX+pF3KNEoa24mx+XCAhLaO3j3PVrbtrpwlBKfD79P6rTUVKNQ4FmnUMRgZHBYtHfIujp8PibuIRT09tLVTU8vQG+fmJ2R8TiBwEMmFltEqUSnY3AYv1/OzRIMMn6XqQla22hp2Xn9hS+HnfnSPzOxWGXzWaOmo1O0daD81p3QaLBa+fkv+dEnYn0NwGqV1dX3t6nq7Bx/i3RarK9RVb09WTClkrZ2OrvEndvS72NqgvZ2Ghqe37W9eJIJlpf46gv5h0/xrGMwsn+/+NmvePcsGjUT4xRLjF5laZHLl1CrZUeH6Ot/eMQKhRi/x/hdQkE+/omYn8XruT9Ox+N411EoiUb5za8lUCqKAyMcPorZslMj1p8wW/jVn4l338Nm4/Ytvv5K/PX/I+dnSSXloxr7CnnSKYp//G4kwvwcl76RVy8TDtPdw9sn+OhH4vARDMaHpJpVSpocNDlQKStlR6fPvMALfAn4fVy+xPQ0oSBWGz09vHtWlp1Ut4IsEQ7JRIKmFkolbo8xP4cQjIxw9DgjBwWwvMzysmxro9Eh/iTfbKultU0szMtEnNLT9roAQjAwIFMpvvqSQIC1Ne7coamF2sfanu1mdvhL/7TE48zPyUAAlYrmZhyOh+8kqVTU1gHotEL5vVulUWO38/2vPx6lksZGmptRqwgGmZ+TZ36wY9b/5QbV9TUufcPEOKEQZgv7D/CTnzFyEKsVhYKubj76WBQLMpshGmVlheuj0mQWjY4HDlUqkc8xOS7/5q+prhHvvEt3N/4HC9gimywuylAQhQKTSYCMRuSVS6wsi0Scfft3pOmw3kBnlwiHZNngppyUq67BZEalIpcjHBY6nbQ/KO1f7iLQaGVzM9V/XJFvbHD9ulxdJZ+nuZmjx/nwI1H2e3zoFo5SRWMTjU2oVIRCcmWZZGrHPHvfoVgkmWRulnOfSucqJhNn3+P4W6K6ehtTmZIkHMblYmWZYACfTwohpOTT38ulJRYWeOttUSqSzT5EHKBUIh4jEX/67swyao1wOPjwIwTy4gXu3ZFmk+jtQ6N9esHoN5hdGrESCZYW2Qyj0dLooL7+EW+4EqPxIV+vfFeFcfvCKgoF9Q04HGi1bIZZWqzU1L3+5LIkU2x45d07XL0inE4UCjo7OXqMU2ew2yuDb6OD6hrW14RnXd65w5qb66P0DdDXh1Z3f2aQSeN0yjt3GL3KT3/OgYNYLKjVSEkmTSqJWoNSKQ16mpqpqaG3FxCBgLx4Ab9f6g3CYNyREaumhvYOVpYIBCgWKOTRaikUyOcqWxelEkYTNhvpNNEo6RRSEo3i25ClIm3t6A0Ui2QzOFe5McqaG6Ggq5uDh8TR45hMj6xZVSiwWKirw2DEt4HXQyxKLrcjZVjzeTzrzEzLsZvk87S18/YJse8Amu1ICEpJIkEogG8DKSsbzIU8M9PcuoHfR2tL5U9TLH73s6USiSTJ1LNGrPK0+ORpvF5x66Zcc5d3NIXJSHXrMx35jWSXRqxUCrebZBJHE3Y7VtvLMxEXAqsVez01NZX5XSr1kn71MxIKsbDA119y4zpTE9JgYGiIs++LY29h/ZabcNlwoX+ANbdYXJReLzdGOXSY/j5a2+6vD/wB/v5vGb1GdQ11dsxmQiEiEaRkYwOXE3u9HBjk3/33xBNCraapCaWKWFSo1PLObSbH5b79O22UBaC6unItGxvcu4fdzvB+nKtMjMtsFrMZRxPNLRiMLMxJq5UjR0Uuy9wcN28iYOSQMBnJZHA5mRjn5nWSSZqaOTAi+vqxbCFZWqOns5N0imQKv49QqFKfvbNIJbk9JicnSKWor6enl4FBHI6nD71HjvJX/1bU1pKIc/OmuHhejt1iY0PK0sNjkpRkM+SyD9lu3C7VVXR20d9PVzdrbvw+Rq9Is0m07EWs77HrIlapRCRC0E8yQVU1DgdG00v1YxUCjQajkcYmQiGSCQJ+wiFM5td31CgUyGTKWyZcu4LTiUbDyCFOn+HACG3tVFffP/my5m9nJ0eOMnFPJBMyFMLtwunEXn8/YiXjjN9lYZ50mvF7MhwSmxHm52ShwOhVqdOKM++iUpJMotdjsVDfULlvDgfzs3jXScQl7LygZTDS28fQsAiF5NwMiTij17h7Ry4s0NnJwJCormZoiGiE0Ws4nfy//4V8jlBIRiMMDXPmHRoayaRxruJ2EYlgs9HTKw4fo7NzS0+ywUBfPz4fa2u4XKy52WLr0utDKolnnRvXmZ4kn6e3n9NnRFML2/VIUwgsFmGvlz4/zS3sP0BNDZEIsRhjN8VmWEYiVFVhMn33yMUChQI1NdTUPIflqVKF0UhfP++9z7k/VNISzS0HIU20AAAgAElEQVTywEGhr3lzpEefC7suYhUKeNbxrFMoYK8XHZ2vpk6vuoaODuH14PVIj4f1dWr0r+moURb/DYW4d1d++TlLiyiV9PbxwYf84ldUPWLboCyQM3aLYFCEwtLvx+Vk34H7P5DNsbGB3wfw1RdIJJJikVKJ818TCklHkyiWcK5WCrTqGypTXbUKpZJ8/iGJmh2ByYTJxKkzZDLixqg8/zXhEFLS6OBf/oU4chSlggMjmMxkMlw4zx9+J6VEb6Cnm5GDfPgRwNoaTicBP0LQ0ioOjHD06FZbqo1GBobE7KxcWWZ5idUVhoZf6qTt2dmMsLTEjVHm5hCCgwfF+x9QV7ftN0goqG+krUN4vNJiwWRCCNQqDEaqqpCSZFKo1djrpV5PqcSf1lvZrMxnsVqx1T6H9ExZJrunj59pxOyMnJnm5g26evjBu7RsQZdgV7H7Ilae1WVWVmShQEMjA0OvpsNcb2BgkOVl3C5WV+TKsujofB2rg4pFNjdZWuTGdS5fwuVCV0V3D++9L/oH0D3WAFelxl6PxYqAgF+6XGQz96ejbe38T/+z2AxX/ptO49tg9Jq8com/+Fd89LEYHGJyAp9Prq6wskxtLUaTCIeYnycYpLuH+h1VYPkd+gcwGjl9Rng8uJzYbDQ109mFowmhQK0RjY18/GMGh/n4xyDRVeFw0P1HcaZMGpdTBgKVbdGWlgfKNB6P0cTgEFevUCjgcsk1t9hxsX/8Lp+dk8Eg9Q0MDDA4jL3+aYKuQmCzYrGQTLC4yK2bdHUTi3HntvR6qK6mro76eppbCQa4dVP2DwiNhlyW8btMTNDWRmOjUDyniaZeT3MLh46wscHMNAtz/OYf5c9/Ico+EnuU2XURK19gZUWurpAv0NDAwMCriVgGPf0DjN2iUGB1lZVlWci/dgmufJ5EgrkZbtzgwtc4V1EI+vs5/janztDe8YSuF42axkZqaxGCcJgN7wOtrzYbn3xLpDEWY2GezbC4fk2ePC0++QnAxgZ6A7Mz+P20tWMwyEhUuF1oNBw8xI7O8jc2VtR+NzdZc9PQ+IAQc9mY5sAIvX1EowBqNUbj/RuezeL1sBmuNG43bsdjt1z6YbNRKuFZx+ORxeJr9+w9ilyOZJKJcXn9GvEYPb28e5a+vsdVSD0GoaC+gdY2bLWEgnxzAd8GiQSj10gk6eqmoYHGJvYfYOwma27GbuHzkc0wOUksSlu76Ox6bqmRckPxwUPCtyHX1lhzc/E8+/bT3klNzcvbaH/N2XURq1BgdYXVFQp56uz09L6anv8aPT292O0UiqyusLLyOloSx2OsrvLp7+SVyywtUlvHkWPiZ7/g8GEaHeieJHGr0dLSUmk1SyaJRO43Em2Rzi4+/EgE/PLWDf63/6XcSiybmjlylA8/oq39Ka/rtcJgoKsbzSNif3kU44+Joz9RKBCNkkz9sZCnbhsl3Wo1FgtGIyoVwQB+H6Wds8aKRJifZWYal7Mizff+B6K17SmPplDQ2sbRY3jWxfQUv/lHmc2RShKNcuQoH3wkHE00NPLjn1BVxZef8/t/ktEopRJ6PZ1dnHmHQ4efp8yVUsm+/WxuikvfSJeT+XmmJ+nopK/vya/bLmF3RaxikUyaQIBYjOrqShr6lWTwNRqsNixWaqqJxwgGSKdlsfCQrq9XQrFILsfiIteuMDaGy4VCQU8v75zlwAitbVtyE1arqLNjsSIEqSSxKIVHj4waDfX1nHmHqur7DiwmEz29fPQj0doqNzaQJXQ6urrpH6S9A4Nhx6wMHoNK9bhgo1A8fHJdKBCNkEoCmM0VwdwtUj6mxSoaHXLDSyyKx4Na87oLsEpJoYDLyWfnKn2+A4PsHxGtbeif9syFQKejpYWz79PRgdOJZ51yxebwfnHwELZaqnQ4mjh2HJ2OuVlCIYDGRrp7RG8/hqda2z3mfKw2urs5ckwUi3J1hVs3pa1W1NdTq97xLfPPhd11D3I5EnEZjZLLUVuHyfzK5JGUSmpqMFswWwgGiUZIJMjlqXoN/iClEpkMkU3G7/HF5yzMk8/R0sqRo+Lsezi2sLoqo1RhtVbSNakUsdjjPJp1uoqA0M9+Ib79RZ2On/+Sjz4W4TAqJVVVUlf1lDJubxKFArEYqRRaLSbTlorav0NtLZ1dIhaT5d5Eg+F1j1ilEumUXFrg9/+E14PBwFsnxOGjGE3PmpezWDl5ipOnKBTE0iLFAl09D2wq65TiwAjD+wiHKzLNZvNT5iGfiE5HUzPvvEssKpaX5K1bVFXLt0+W18RvwhTtGXkNBsiXSDjE8rJIJmWNno5OrLZXfD5WK51dZDIkk6wsC5OJpuZXfErFIhteZme4/I0cG2NhHqtVdPdw4hRHjtLQyBP16f+EUkl1Dbqq51D+W05kCYFSKV7PispXhkBXRfX29zkaGhgcYnmJaJSpSeloEq95ljWbYXpaTE3JQACtlrZ2Dh6S3d1C8fyG8bIejZQPD/8KBQZDRYfihSZmjEZGDsqlRcZukkyW98+ERkP/wAv8pTuFnRqxSkVyORJJslkKebQ6qqrQP6lAPBhkYYFEHIOBnt5X7/hZZ2dgkDU3iQQLCzQ1PzxilY0TM2kyGfJ5VGr0ejSa518NXyySTrMwz9XLfHYOnw9gYJCTpzh1BkfTtueVCsFzGVCUyq06Q+5ChHiabXl7Pf0DXDxPIMD0JCMHH/fD5a6DF+1A/xgKBSJR7owxfo94nJ4e9h2gr5/6esTzK0kQ4nEqNuUU4ktAV0VbGwMDDO9jfJwNL6NXsdXS0YlK9Zr2wLw0dmrEyuVkMMjsrPBtEI/R0EhbG30DT1Di8m0wNSljMSwWhoZFw6tWrW5q4sgRceum3PAyPSX7Bx4+HhQLZDLS7RZrbjY3MVvoH8Bqff41I7kcm2Guj8pvLrK6gtFITy8ff8JbJ7DXb7v4vlQimSKdeXZNgD0ezR9Frbbbz2e309uLXs/iAlNTldnJoyhPlfT6V7aVUjYVu/yNvHubYoHBIc6+Jxob38xeJYUCrU70DfDhxwSDcnKC81/LpmZx9Bhm826fuu28iJXLkUpx6SLj9wgGZDYrpOTObUxmBgc5eJgDI4/8rG+D6UliUVrb6Ounzv4Sz/th2Gx0daPXE48xPcXJU98VcSjvNq8sy2tXWFqSvg2h1aLVcekihw6zbz+Opucplzk7w4Wv5ZXLLC+RTCIEHg8XzsvlZbFFZ9VvUyqRzXLvjiyXogX8/M1fy4vn93LxzwG3SwaDAMUiX34h/X6h1W5vpZXLEQrJ9XUyGXwbJB8rblleXb1C7cGVZa5dlcvLFAq0tTM0LAaHMBp3nhziVijf6voGDh5i7KbY8MrNTaan5bWr4ugxWlpe9fm9UnZexEqn8fv47a/56kvMFqwWaTIxN0siSUszf/GXHBh5yFMsJVLi9zM/Ry6H0Uhn16vfxzKaaGpBryeVYmEOv49S6YGhoVQimZRTE/yn/xuPh0JBdneTyTA7wyc/FYDB+Dwj1uQEf/PXrK9VeoAiESIRZmd4DtJp4PXyf/0fz+dQe/yJQoHf/Zbf/faZ7mo0SibzuB/Y7vJaSooFiqWKd1Q5b6lUPk1GS0pKJWZn5MXzlf68AyNiaJj2jjc8P2axoO5j335cTjF2Sy7M8dUXsrlZNDU9TRK4fBuLRYpFFAKhePWzkKdj50WsaJTFBVQqDh3io49paUWnE6PXGLvF5ERl4vl9ylZ4sRj5PGYLtbVoNa++Ka8swWerxWwhGiEWY3MTg+H+vm4uy8y0uHdPut2cPsO774nGRtwu+eXn6LTSucqhw8/ziVOrH1AI3GOPpyOZxLmK30c4DKDTYbNVakG3SzpNOMT0FHfvEItyYIQPf0R3z5vv0qtQoNNx+CihEDMzeNa5eYOTJ2nvwGbdtslRPo/Xg9eDx0NNDVYbbW3SbBY7Lq268yKWQoFGS1OzMJllowO9gUKBsvlvJEIy+fBPpdOsrxEOIyUNDTQ6UGte/RMvBGo1DgeNjUQjhMOsuWlv/1bEyuN04nJRyDMwKH78UwwG3C6hUslkEoPxeXYvAo4m3nobm41o9GnKz/bYubR3PJ/jSMnyEosLzMwQ9Fcck1VqbFaG9jGSob5he2X0m2FujzEzTcCP1UpvH0eO0tj45j+c5cGhuxvfCB0dzM/hXGF8XLa2icNHttcG49vA5WJ6ktVVvF705YjVTk+v7B8QVVXPeRh5oey8iNVQj9kMMH5XfPk5Xi++DbmxQThEKv3IT8VjTE+z4UWtpqNTdHSifj0uXaWivUN0dLK0KH0bTE9htWIyV75bLBIMyHSK+gbs9ZjNKBS0tPLzX4pSCYXyOfeTHTlKd7dYmCefp6PzzdzW3uOhmLbv9PZQSkV+91v5T7/B7UKjxWolEiGZoFBg/wGcq3z8YzEwuI0Drq/x21/LuVmqqhg5yOGjtLS+sjbKl4xCgdVKTy+nTlMoMDnBtSuYTHJgUGxLpX7sFr//nbx5nWAQpRKlAiEolXjvh/wP/54mB+adI134egzb2yG8ycoyo9eYnUanw2KRtbXYallzs7jwyE8lkywtEgyiUtHRSUdnZVn2ylGp6Oigswu1mmCQpUVGDt3/brnyIl+o7G+V83WlErl8xehPo3me5VvV1eh0qNWUJDbbXo/9HtujbCszMY7PR28/vX309pJK4VzlwnnW17l6haPH2WJbUT7P+hrj44zfq9jxHD3OyIioqnrzF1h/QqnCbufUGbGxIWemcbuZuMfEOAND1G+h1DmbIRZnckLeHkOh4PARDh1GlvAHuHiexUXO/V6+/4HYi1gvEK+HS9/wxWfS7+ODDxneR0urWFjg9hhra4/cf04mWF4kFJAqNW1ttLW9LsOxSkVrG23tqNWEgiwtPlC1VYlSknSabLkZS0kiwcoyoSBCUFPznKtdFYpXX0K5xw4lssn8HLEYtlp++IF4+yTD+yiVuHcHl0tOTzF+j8jmlg4lJek0U5PcGWNlGZUah4PDR0T/wK7bZzVbOHac6Slx/isZiTA3x+go1TXU1T25dCKVYn2NuVmcq5z+AT/5Kf/8X4hiUS7MkYjjcnLrBvsPPO4Irxuvx7C9HSIRFudRKugf4OMfi45OkPLGdZYWHpAG/w7xOLMzcsNHTTW22tfIwk6hwGajthaFEp+PmWkZj91/BpVKauuEwSCjEdxuVldwNOFZ59ynbIYxm2V3r6ite8zh99jj5VHfwNsnaW0VsRi6KjJpRq8SjzM3SzhEOl0pV9sK2SxBP1evyLEx8nkOHeaHH4r2Dqqeh4TKzkKppEbPgRF++gvx1Rcy4OfrL2Vdnejvp6r6CVtQ8TiLC2xuUl3NoUNicKisKikczfz5f0U2i81Gx3Pawnw57LyIVTai1ekoFvD5yOdlIs7KMuFwxRg0nX5AD0JKMhk2I/j9lIpYrQ9xFH2FCEFVNUYTVivRCAE/kQjpVEXcqGzm29Mr7tyWbpf8/JxoaMDt5tYNTGZZW/t8FCX2+D7FIpkMwQA+Hx2dD1iB7PEoqqvRaEgliMZYXMDvJxyiVGRzk0IBISgUHu5A/31CQebmmJrAs06NnsEh3j5Bnf11Sea/TCqm3l2cPsPSAqEQc7PMTMmVZdHWUdnUfxSZDH4fySQ6LV3dtLaiUCAEJhOHj6BSve5ikt9n50Ws5mbeOYvTyfVrLC3JUpFM9r56UDpNOIzFcr9LqVQiFCIUpFjEauNVmQ4/npoaOjqJRclmCQYJhWhoRKVCp2PkIPk8Lhdzs1y/JgsFFEq0Wn7yM3HmHfbc3l4QuRx+H5e+4cvP5L/+d6LunVd9QjuBQoFkQv76H/nD71lfJ51CQnt75X2sqX5cFuQ7rK4yeg2nk1KJlhb6B+gfkHr97p2g2e3s3y97ellZqST6RkfRG58Qscq6a4U8KjV1dRUjBcoGbM+p1uYls/MilsXC0DB//i/EwUOEQsgSGi32eqp0xOMM78NgeGClXCzicrK6Qj6Pw0H/oHi+BgHPBYOB/gHh9cjlZZyrOJ3U2SstflotXd388lfC5ZIbXuJxtFpR38DwMN09VL9+0ffNoFQklWTNzb27laaiPZ6Ib4PJCe7dJRRiaJjWVtHcgtVKPC6vXcHj2dJB8nnSaSbHuXheBvzY63nvfQYGhcHwuuw9vxK0Wmy14uhxQiEZ8LOwwFdfVDwnq6sfmSktKydIKOQJBNgMY6tFCFIp5ufwbRCNcvjIfW/r15+d9wjoDegNtLWTiLOyglKJ2YLZ/Ejph0IB5yory+Rz1DcwOPw4sctXhcHIwBDTU8zPsbrM6gojI/eFBsp+tdmMSKVkJCK0OhoadlG51CuhVCKbY3MTt5tEgkKhsj5QKlC/AA3iNwO/n7FbYmVFCsGp0+Ld9zh0mGyWO7fFrZvyMV4z36bcOjkxLm/dRKultY2z74ue3t3ea6FUoTdw6DDhkLg+Kj0eUkn5zlnR3UNz8yNjuVKJrgqVimyWlWU6uzCakJJgkKuXmZ1lM4zNthexXgq6KtraEaDWPG77sVhkzYXbJfN56usZGnpRxjbPgtHI4BCXG8oJQOl2Ufiekblag14htFoUb3q3/2uFhFxO+nzMzggpMZvo6MT2qlX/X09UKqqqUSkreg0aDaUS01NcvcLMNMEA6i2YdPh8fPmFXFxAq6V/gJGDdHbd71DczSgU2Ovp6+foMW6P4fdx66a011NXJx4VscwW9u1n9CoT44xelQaDqG8gFmVulkvfyExa9A28GhP2p2YHRyyVakuxp1jE65VeD4DVRnPL8xTie15UVdHcjNWKEGx48XofUlKlUKDQbOmd3+M5UioyfhcBq6vkcuh0HDnK4BBNTbt91v99jCY6O7HVsrlZlqNkYZ7paaYnK8I0UpJKkUzy0J6qUqnSuXH5Em43NXpGDnHwsKire0k2H685iv+fvfd8bjS78jSfC+8BEgABAvTepWUm05dVlVRSSyqV1Oppdc/ETHf0xv4RGxMbG7GfNzZiZmdjNyZ2e0zsTLfUMi1XNk1VGqan96AnQAKE9+7uB0CVlaWsqqzMZDJJ8Yn8UgRYvHjxvvfce+45v58Ck4nmFs5dIBYj4GdiHLebY8eo9zx6WjObaGvn8BGxsS4jEW7dlAgRj7O+yuoKTU3yyNE9Vmy8hyPWY1Ius7VFMIhGg9lcNQZ80ag4FlosqFQEg2xtPm4R8AE7TanEz37Khx9gNst4nGiE2Wne+CbffVvYDyLWw7jdnD4tL19ibJR/+qmUoFSiUmK20NgolEq5sU54m1AITz2KP1p7FYtsrDM5zq0bJBJ4PJw+I06cRG84yIFXUSpxuXn9DbG0KK9fZX6OGhvnL6DVPjpi6Q14dLzxJmaz+PB9eXOY3/9OlkpoNXgb6Bvg1dekzfbiTYhfzD6PWLEoK0skEhgMtLbhcr2gt36lE7DORVc3Pl+1uU+t/opCoAOeAwoF/f0cOy5a21hZ4f5d/H55c5ih0xgMf+pmRZ9Do8FWK77/Nu0dbAZIpykVcddXq9SSSZGIc/osNiuKPzoILJdJp7g1zM1hmUjgbeDkKdHeTk3NC/rM7hY6HXV19PWLk6fkxBjr63zwntTpRL2nWrn+WSoSBE3NqDV4vGJlmfU1FEqMJrxeenqpqdljaZt9HrG2t5mbI5HAZKa7lzr3C72aqHOJnl4ZDJJIMj+HzXYQsXYfhYITQ+KdH9Hdw+wMNhv/9DMmJwkEcLkPItZDVKyiX32d02fZDJBIUMjT3Ir9MWx9clmCIW7dlKMjlMt0dHL+/Auaw99dKk1U3T2cvyBCQbm2yseXaevg2CAm06NP9O0O7A4GDhGPsxlArcFgwGZ7oLi9h9jnq5etTSbGZDyK0Uhbm3icJ2cXsdtpbRdGI/EYk+Ny60ttYQ94PghBYyPtHeh01Hs4eQqHg2KBWJT0FxgFHKDRUOeipYX2zsftUd3Y4N4dZmeJRKqFSGfPyV13sHthaWnlwkuyYhK2ts7kBGMjxKJf8VsGAx4vrjqs1r3aKrDfI9YWExPEYpjMdHZR92Ir5jnr6O7CbCYeY2KCra3dHtABIAQmM1YrSiU6HTW1aLVVe+XHLNf+E0SpxGDAbMFq/eqFfOVizs5w8SNWltFoGDhMXx8NTQdb2C/EZqOtnUOHaW4hl2VyXF6+hH+DQuHLVEVUKoxG9Aa+rmP1i8PeHPVjs7XFxDixGBYzfX3S7d7tAX0pbhe9/dJsIRZncoLNgz3WC0axSDZD6SBQPVOKRZIJ7t3lN7+S/g1cLr7xpujpEzqdOOh7+yLUaqw2ceq0ODEktFomJvj1L6XPV7V02Mfs24hVKpFKEY0QCVe+XUzmFz1vW6lmtNnQqImEiUZIpQ7mx12mXOb+XfnxZRkKyYU5Pnwfvx+Nhro6+QI29u1FtkNc+0ROT8p0GoeDnl5OnMDjfRFrel8oNBo6uzhylI5ODHqCIe7ckmOjFAu7PbKdZG/mMh+DfJ7wNpEwqRQeLw4neoP4ulbTzxmlCp1eOJzSbMG/QSRMeBuH8+v5jR7wbCmXmRjHaiOXY3pKXrsqikXa2nG7Me01FdEXjYr9m9/PlcvMziIlrW0cPkJ374Fg5lejVOJtoK+fo8fIZFhe4s5t6lyyt09Ylbzgc90Ts08/FqSSzM2xuYlKRUsLbW17wxlaraa1ldZWgltsbTE7i05/kM3fTaQkHObmDS5+SCZLuSTPnBXnLlDn3ht31ItMRaV6doaPr7C4iE7PuQvi/EuYjHv1lOV5Uqlcb2zku98XsZicnWF0BIeT8xdoad1LtsJfi30bsZJJZqYJBFAqaW6htVVo9sL8olbT2ipaWuXdOwQCzEzRdmB1sRuo1djtnDjBT/4alxtgbha9Hm8DJ4bo78dsPphVn5ZikdlpRu6ztopaRXsHA4doa0etOUgJPhZCYLUxcJjePm7dJBRkYZ7hYdSag4i110gkmJok4EeloqVVtLbvjUY5tYrWNlpahUolA34mJzn/0m6P6U8SnZ6mZhoa+cGPhBDE48zPYquhrb3iiXcwpT4D8nlu3+LmDbJZ2js5MURHJ3b7wbX9Guj16HT09nPsODeHCQR47/e43fQP7PbIdoZ9u0pMp1nyyVBQKpTUe/B690b/gVKFx4vHg1LJdkgu+uRB089uUcm6aDSo1ZjNtLVTX49ajfJAifhZEIkwP8vEOMtLUqGgt5fX3xAu18G1/doIQVe3eO0bwttAJs3kuJyaZHmJTHq3R7YD7M+IVSySSuLfIJ3GaMTppNa+NxwilEpq7TjqMJpIp/FvVK0uDthdNBqcdS+iT81eRErKJTbWuXOH2RkZj1Pnon9ADJ6gpna3B7c3aWxk6DSdnegNrK8zOSHHRolGKZd3e2TPmr2w7/iaSEkySTRKOoPBSFPT3hN6MRhobCKbIZ0mGiWRwGo9ODU5YJ9QLpPLyrERfvUL1tdx1vHaN8SRo9TU7I1EyAuIwUB9PecuiESCD96XY6MYjbKurtLwLvbTtnUfzoLlMn4/a6tks9TU0NG596qQTSY6OqipJZdjbY2Afx+ulQ74kyWVYmGeiXEmJ8jn8Hg5c5a2djSag2XZE6JUYjZz+AiHj0ibjfA2Y6NMTrCxLvbZ1LEPb5BSiZUlfD7yeRwOurrFnuv0NJvp6hYOB4U8iwssLR2Yjxywf4jFuHdPTE6KzQAqFY2NnDgpGxr3tVTDzqPR0NMrBw7hdJIvsLzM/ftibna/TR37MGKVSywv45uX+Rx1LgYOYd1rxw9WK/0D1LnI5/H55MpBxDpgX1DJ2C/6+PB9OTMttVrOnOPlV0RNrVCr91HqajcQAq1GtLaJ770tenpIpxm+Lm9cZ2uLTGa3B/fs2IcRq1RmbVVWHGPtdjq7Hlc9+sWhotvrcFAosLzE6oo8iFgH7APKZTY2mJzg7h1CIRxOTgyJwZOYzXujMOpFRghUajxeXn2d3j6h1eJbYOS+nJkmEtntwT079mHEKpcJ+Flfo1DEbKHeg26vaUbodLjrMVsoFFhfw+8/2GMdsB8oFLh3R16/JiNhams4dFj0D9DUfKAe8sywWOjuZuAQXd1Co2V5mfd+L30Luz2sZ8d+K81JJvFvEI2AwOPB4RQ63W6P6eujVKJU4nAIb4PcDhGNVluhTabnOox8nmyWbJZyGZUKowH9jlVd5vPEoqhUGE2oVLt/Al8qkc2Sy5LNftnbhEClQqvDZPr8mEslCnmSSRBVq73nv42oZOHyeQC9fpeLZjMZQkFG7jM2QjrNwCFefoWWFowHmkzPDrUai5W+Ac6usR1iK8C1T+juYeAQRuN+WBnst4gVjeCbJ5HAZKK7R7zg9iJfjstNd48YvS+TCRbmMRqfU8SSEikpl4nH2d4msk2hiMGA202deqcUHzIZFn2Vsn6pN4hdV9kvFolGCQUJb3/Z24TAYMRuR6f7vDNAIU8iIVeWhRA0NUuTeRe8M8plQqGq0Z/LvcsRKxFneZmxUWZnEIKOLl5/E4/3IB/4LKksoXp7yee4cZ2lRe7e4ew5/Bs0Nh1ErBePSJj5eRIJDAZa23A4dntAT4HDSWsb83Mkkyws0NhEY9OO/9FymUiYuTmufixXltkKks9SlqiUmC2463n1NdE/gMv9jCca/wb/+e9lQyPf/Z7wNOy+L0wyyegIt4a5c/vLatiUSrxeBk+I77/z+THH48zPiV/8XCoVvP2OaGvn+W/38zluXGViXAKvvCbq65/3AD7LzAy/+rlcW6Wmht4+jhzBU3+g8rwjWKy0tHLqFKkk01OMjsh3f8f33xHPOUmzE+y3iLW9zcw08ThGI+0d1Ll2e0BPQV0dXd1cv0o8zuw0hw49jz9aLDI/z8dX+PUviYQpS7RahKBYJJ1CpaaQp1TighW94Vkmc6JRrl+ju4fzF3C8AMq/pRLpFOEw/g2AcolcnmiEaBS7HYsVrQahQKlEoyYel+Xy5xtZDbUAACAASURBVHedhQKJBMtLKJUkEhR2w7WoWGJhXt6+BdDVLWF36vGKBVIpZqa4cplQEIeTs+fpHxBW264MZ/+j1+NyM3SKUBCfj4V5rn7C8UHqnBiMe1sHa79FrOAWY2MyGqW9nd4+3Lu6qHxKvA0cPozFSsDP+Ji88PLzuNHyOS59JN/9Hetr9PQxdEq43KhVRKPcuinv3uaffyWTSQYGUGt2P3e3c5hMHD5CrZ2hIQGkM2wGuHZVXv2EodPi+CBuNxoNQmCx4vFi/KOEm96Au56z54RCgcu9g0eALz7JFLPTTE7gW0AI6ut5+RXR2bXbw9rXGPQMnhR+Px98IKNRZmcYH8NZR3fPQcR6MagcvUSirCyTy2E04XKz53qHP4vZhLMOo5FcjpUVohFKpR1XDS+WWFkmEMBRx/FBvvEmNhtKJek0Or0ol+XtWywtMjePWlO14SgUyGaJRonHyGbQG3A6MZkfSvgkk8RiBLfI5YBqhYWnHoPxy4R5kgkiEaIRsjlUKhxOXHWo1NW9XS5HKlUVBHE6SaWIxSgWUSrR6XC5sH8mJ1wxvA+GSMTJZrDaqKnBVvOF6UeNBpcbs5nm5upIlpbwLQiFQnobOHyUlhZ0OoRAraZQYGICjQaDgUymWqhSEcw1W1Cp0Ggf7EdTyeow0mkAnRaTGYez2jWYThONEIlQLOKuJ5cjsIEEjQbbH8b8Kfk8mQzRSFV8srYWp5NgkGwWnQ6rFfGoTXCxSDbLdohwmGIRo5F6DwYDWu2X3hlPSrHAZoBLFxkbk/k8ff0cGxQtrXuvS3JvoVThrKOrm9NnGLlPKMS1q9JqE01N6PR7+Oxw/0Sscpl8nliMrU2MRsxmamx7O0uu0WIyV6sttjaJxcjn0Wh29m6TZaJR8nlaWjlylKFT1RhZmZoVCrEZkMUivgXhcuFyUy6TTrO5iW+e5SUiEex2Bg7R1EydC5UKKSmV2NrEt8D4GLEYgFaH283QKeltwGp9RASu/tYWM9MszBONotMzMCDVxzCahE6HSkUmQyDAtavkcxw6QsDP8jLZDBoNNbUMnqhGC4UCKcmk5eYmY6NibZVIhJYW2jvo6MRWg1pd/YCfRaXCYnmw4onHKBSwWlEIampoaKC17cHdtTDPlcto1DichMMUCuj1NDRUdbYqa6lKPUuhwOYmY6OsrRIKISVWG14vhw5j0KNUVU6/mJkmmWLoFNEot28iJSYT7R10dWMyV2NhpQ4w4Gd+Hv8G2SydXRw6JMfHRDSCw0l7B866R3y/le9rapLZGbJZ3G5ODOF2Y7OhVqNUPMvcoZRkMnJ1hfffZXISjZZjx8WZszgcaHYmQB5QQaFAr6e1jTe+KRIJefVjrn5CrV2+8iq1SrF3J8b9E7HSaZaX2AqgVNLUUpUp2+toNLS109zCzDSbm8zP0dKCeSc3jkJRbbiemeLOLbxe3PXU2jGZaGjktddpaxMKBS2tOJ0Ui4TD3L7FL/5JBvwkEmjUqNX85tcMnRKnznDsGNksExNcvsjYqCwWKEuATAalkg/e461v81f/6hHDqEzclz7iww9kLkuphFLJx5eotXPosDw+KIZOk0mz6ef6VeZm5e9/RyZDJoNejxAU8szNcv4CQ6eF00E+Lz/6gI8+ZNEnU2k0am5cR6ejvp7Bk+L1N7Dbn6oOMxTk0ocyHEanI5erFqqcPS8OHeaTKxgMtHdQY0MIfv8bhm/I6WkUCpRKUklKJVRqTp3izDmGTol4jLk5rn7Cwry8fpVike0QgEKBTsfps+J7b9PUjMVCMsnli/z8Z3J7m1wWnZ7rVzEaiEalySSODmK1fT5ilUpEwty7yy9+LpeXiEbR69Dp+f1vaWigq5vX36C1VTxDQ8VymckJcXNY+jdQKmhs4PAR2dsntHuw52QvYrdzckhOTjAzTSrJwjyXLoqhU+zdlOz+iVipFHOz+P1SoaC5mfaO/bCI06hpa6ellfl5An45OyOczp2NWCoVHV3MzzM/y717aHV4G3C5sNsxGDGZOH0Wo7G6z0smGb3P5YvyyiWMRhwOau3EYkyMk8/LQkF4vUTCfPAewzdkYIO+gaphx8oyG+tMTeBw8Gff+/wZT7lMKMiVy3x8RY6P0tKKw4FCSXCL+Tk2A2QysqVV5PPE4ywuyvv30WrxePB4sdmIRZn1USpRLtHRgV7PxjrXr/HhBygU2O3UNVQr1xfmCYelTieGTtHR+eQXLZlkbpbVVTQamluqibtSqaJIJA1GEnGRiBOLceWyvDlc3cLW1xOPs77G+BiZNPk8HZ3kcgS38Pnk2Bjr67jdeLyUy8RjTE6AkO56odejUjE7w7WrvPs7vA243NUPPjfLdgi7XbrcIpX8/DgLBWam+eRjPngPrRaXG7udYpHNTdbXmJ+rlOnLhsZnU4hfKpFKMXKf4RsitC3dLo6foLcPr1eqVXv5LGXvYDLT1s6hQ8zNcP8ey4t8+AEOR7Vrey+2we2jiJVkakr6N1AqaWkR+2OPpdbQ1iaaW1AppX+D6Sl55OjOPupaLW9+UygV/Mf/W46NMj0p1WqMJmrtNDXR3ctbb9HVg04nhCAW42f/KG/ewGjk+z/gzbeEvZapSX72U7m4wPWr8sw5sb7Gb38tDXqGTvO3fyfa2gGufsLlS7z3OxkKMTdHS8tDY8jn5coyv/gZkQh9/fzlXzF0Cp1e3Lgu3/s9o/e5fo3BEw8OQvQ6XC5+9GN+8A4Go7h/j//4f0n/BvfvEYuh1nDlshgfk5k0r78pXn6Fc+eJxZie4j/9v3JmGr9fGk3iaSJWBZUKu52//ldi6DRAqURw88FNGAqxvc3cLEol3/muuPAShw5TKnPlIv/Hv5MBP8PD/OgvHlTAa7U0NolvvcW/+An5nJya4j/8e6IRLn0ou7qERsv773L7FsUi339HfPs72O2Mj3HxQy5dlLk88lE1+dkMH30oP/qATJq3vs1f/ETY7aTT+Bb46T/IG9e5+BFaHe76Z5N5zmQIBhkelsPXSaXp6uHtd0RlKfnIA7YDnjlKJXq9OH6CdJr1NbmwwLu/lQMD4tggNtuenCH3T8RKp1n0sbWFQkG9RzY2Cs3eb5dTq2lsxOuVCgXBID5f9bh+51AqaWripZdRKMTiogxsEA4TixHwE4mwusp2kJNDnDmP1Uo6JSu2mT29dPeIvj4MBtQacjmWl5BSeDxYzPzkryt1E6KmllSKcJjgFvGYLBQoFMhmHtKgkpJYVGxuymCQUhGtllSKzS2hVpNOCY1GZnMEt1iYp/kPcc5spquH3l46u4RaQzRCZ5cIh2UkQqFALMbUBJubFEtotZRKrK+RzZFKoVCQTrG5yXZQ5vNCrXqqmdRipaVVdPcycAhgM0Bk+0F6zWjEZOaHfy7SaZpbsFiIRMhkiEQoS7JZkglKn7HuNOjp7WPgEC2tFIsim5V1dWTSxGIUCqRTTE+RTMjWNnp66O1Dr0coKJXkxATrazyyiaxYYnWF9TWUSoolEYtSyJPPk89TLpHPsbqKf4PyM5IEW1/nxnWWfBSLNDTQ0yv6+rHV7Mml/R6lckBb76F/gM5uEQ7LrS0mJ+SdW+LkqT3ZrrpPIpaUpNOsLhMJo1bjdlNfL1VfXw26cuBfLlEuIxQoFKhUu1kMqlLhrpcuN2oN4TAry6RTSLlTQ5JlymX0Bg4d4fgJFn1icoKFeTkzzcQEAT/rq4yPMj+Po46WFplOkcmi1dHWTr2nWqfg9WJ/i0xGlCU1NSiVHD4qgkFCQbY2WV9j0YfPJ5cWyeYeNQZJJEIoKIpFCRQKTE2KYBAgHpfpDFKSz7O+js1WdT4zW+jrF54GKqcjBiNNzYyPk/BTLpNKsrws47FKFQCLPhZ9AIk4hQJCkEqSSpHNSKVRKJ9iMq2tpa0dlwubDagqTXyKrQZvA+0dhLdZW2N9nZH7xGLMz5HNUPojEyODkYEBKltStRqDUVit8lPRimyW9TUpy/QOCI+3egjn9aDV8I//nfW1R4+wXCIaIR6n1s5WQA7feHAbJZNotCQTxGPVs8anofIc+RZ4/125sYHJRF+/6OmlofHAs3EXsNloaePQYQIBEQrJqUk+/li2tonK47m32A+3T2UmiscIh1EoqHNhtaF5IufNfJ7lJQJ+trex2qiro6VlNw0hhUCjFVar9HjwbxAJE4s9qC945iSShIIsLaLRcPwEdS50Ojq7RCWNtuhjYoKPPpABP7dvynRKqFTkslJvwOMVnwrkK5Xo9EKtAVCrWfRx45q8e4f5OfJ5hAKN5svaaSslcPE4pRLlMskka2syEgYoFMlmcTiwO3A6H5x+mUy0tVP7pYbrajW5HP51mf3DJrVQBInDidGEWk08LrQ6lE/xQJgteLxfWJ5aKBDcku+/y907LPpIJimVsNsplbHZiMc//36djo5OGhof/UWXy+RyKFXYa6VWW32HSo1eL1TKxwo429vMzTx4Z6lEYyMNDdTan8EeKJvB72d8lFvDhMO0tPCtb3P02C6v//5kUSqx2XjlNWIx7t9leYnbNzl5EouV+vo99o3sh4iFJBJmc5NkEr2B5mYsFvEES7lMhq1Nhm+wtkq5jEJBTQ0KBc0tGAw7+73m8yTiZDIUCuh0GIyYzdWycpUKi0U0NclolGSCrU0iYXSeHRlPKsn6OteuolLhcuPx4vE+eHVtjXoPYyNsBpifpdaO3U6pBH+o3q5QUccIBkmnsNYwPsZvf83iIvE4bjd1LurqyGRQq1haevQwKoXggE5HbS1eb3XXUi5TKBAOY6uhoRGLhVQKQKOhtvarRfNUapxO6j3VdWWxSCJBPkepjMMpnn6a1mmxWL5Qui28zcoyH33I+BilEjYbzjq8XvJ5SiW0gc+/X63G7viypiUpKRXJ5R7kVIuV//wqz9lKv5rDSUvrgx/aashkaGjEXf8MLkUiwcg9xkbl+hq1dto7OD5IU/NBPnB3EAKjkd4+fD6aWwj48S1w9zZ2B646FMq9FLT2Q8QqS9bXWVokn8PhpKPzCQ2xQkHGR/nlz2U6xdBpMTZKNCKNJqHT0tK2s19qIs7UJGtrRCLU19PaRm/fg3NRk5mOTtbW2AywtMTaGi73jjz8mQybAW5cl/k8rW1CoaC948GrbjeFfuwOAgHCEVEsotejVBKJMD8vj58Qn36WRR+XL0qfj2ODYnaaix/R2c033+Lb36G1DaNJ3L/Hx5eZnHjEbkAITCYsFpQKnHUMnhSvfYOuboB8TsZiXL8qCkU6u5CyGrEeh0IRvZ7vfI/TZ9DpBIJkgukpgkGyGbp7qHPtbIbE52N6SoyPSaWSb31bnLvAocOoVNy5xX/9LyhVXy8Tp1Cg1RKJMDdL4g/7s2SSjQ0yX3XSqdZQU8Nrr/POnz+4p+/eZnqaxkaam5/BdQiH+ehDOTaKUklfH0On8Hh2WYf3TxyFAouFjnZefoWrn7C6wpUr0u7g5JDQiL2UG9wXEavMygoLC2RzOJ30PaleWSDAok86nNi7xfkLKBTMTIvtEIEAza1f/etPRrnEdpjxUX77a4QCk6naM6vR4PVWa8GtVvr6xcS4XFnBt8DKMseO78hgbDU0t6DV4JvnN7+SwS1x/AR2ezXTtb7G+Dj+DXQ6WlppbKLORU0tm5v4FpicwOOh1s7KMpc+5P49UilOn0WrJ5VCo8bppLkFp1NkMqwsMz0l04+yRhUCWw3OOmkwkIwzP0dXN3V11NoJBMTIPTk8LE0mcXwQ9ePdvFYb/QNia1MGAhWhGnH4CPk829vcvsXWFgY9h4/s+PlKuUShQC6HzUZjI41N2O0sLbHoY2GOWBTd1/EZMBrp7iGTZmWFq59IpUq43ayucv+u3Nj4wt9SKnHWYTYT3GJ1Rayt4nIjy2xuMjLC6AhKBR7vo+sMHxMpq/X6kxOEguj1HDnKySFhtuzIGiserzbXF/JYLNgdVR2WP3FCIUJbxOMIBRYLda7qibK3gde/Ifx+ubzEyjKTE0yO09zyQih5Pib7IWJJyeoKvoXqHqu/nyeLWJsBubpKV7c4fKRSLIdaTSxGIEC5vFPLkGKJjXVG7nPxI9ndLfoGGBuRq8u0dwi9/kHE6u3H4SSfw7fAygrlr8r8PBm1tSi7aWxibIxLFwmGZHBLtLVTUwNw9y7DN9japLmFQ4dpb8dipbGR9TW2thgflUajaG3Dt8DFizIRp86Fx0MigV6PQlFRhhWlEn4/d2/LsVHSKUqlh/JaVCKWTdbX43KzvMy9u7KmVhQKtLVz+xbv/V74FmRHp8xmhdL4WB/K7uDkEPNzrCxz5ZIol9HrSSaZnea938tUio4O4okdT4vo9FitaCtyTYJkgtUVhq9zc5ilRZlO43JRLD3uN2s2c3yQSJj1q9y4Rjwu+/rEyrK8dZPNAIYvuDIqVbUPbHyM+/el3Sn6+imXmJzg0kdybpbGRtGfefKIVSm4mJulIuWVz+NyceSoOHzk2avPVJKimwHu3Ca4RTaL3UFPT1XE5E82/VguUyqxssTYGNshFAocDo4ex2RCpaLOxbkL3Bzm1k2iEeZmGR5Gq3s2h5fPh30Rscps+llblfk8NTW0d2B8Iv2CeIxgkM4u7LUoFBiMGAysrsi6OvE0q84vp1RkaZFkUr70ihg8QV8/CoXY3mZ1habm6kmDyUx7OzW1FAqsrcmAX+xQxAJ0Ov7se8JskR99wMY6v/qlNJmolFFEI2QzHD4qzl3g7Dnc9Qj4zveE2yNHR/D5mBiXRhOFArEox45z+qxobSOXZ+g0W1v84p8YviGVyqrqXVMz8RjbIUZHpMv9UMDQaERLK3/5V3zwvvz4Cpc+kndvYzSRiJNMMnBYnDtPWxuZR23R/hi7nZNDLPoIhQhsyF//iju3KRbJZUmnOHKUt38oKlnHHaWxCatNXrvKzDT/6f+RFitabbVesbtXrK7IQpFgkGLh0YXpf/yh3vimcDhpamFhXt65zcSYNJqoqf2yxnm9gW++hVZDOs3qCv/tv0qLBQnxGAYjZ87y8isMDDz5drOQJ5Hk9i2uX5WJJF1dvP6G6OrBsAOejfk8/nWuX+Uf/ptsbhFWGzeH5ZJPWCx4G6j50jKcfUwyiX+dD9/n6ieys0sUirz/rozFhE5HvQe9HrOZk6dEMMiHH8jVVX73G+lyiZYW9Ia9kRvc8xErnycWJxSSyQQmE7X2J79ZsznSKZSq6jOvVKJQVrpVdtCmoVRiY0OmkvT1M3CI9g6Wl5icYGWZ3r7qezQaNLXY7ZjMJBNsh2Q8JlSqHWkAVKs5chStVqhUcmWZ7RCZLOUSCiWNTdTUcPY8gydobkGjoVjk6DEsFmG3y6lJlnzkC5jNdPdw+owYPEGdi3yet77D5ATLS2QzCIFaQ29fNTlWKd/Q6VCreekVvF5Ra8dgwGrl/EuAUChkJEw6Xd1A9/Vz4iRHj+NwkojjdnP2nBDg/ow4uslMWwdnzopoRNodGAwYDJw8JfJ5OT5WVeNVq3E4GTjM0Clx+sxXKyar1Nhs9A/wrW/T3Y3F8tDj7XDy6uvYHaKt/cFqyVDRbj8vlArcbjwe3G5eeRWrjfA2uRzpFA4ndS7h8bC+JiSythazic5O4udFsSg/K3prNHLoMA4nCoGzDqUKo5GmJvJ5zGbh35C5HA4nTidLiw8qD1UqurpFsSSBxiahVtPdLUpFGYmyMM/mJqUSKiUeD53dHD7CwKFHSBE+PtEovgUmxuXSIho1XT28+jqNjTtiJJjPsbTEygrpNDW1eL3MTLG5ydwsJvOfbsRKxKk0xZdK1HtIp7l/l411lhax1WA0otHS108sVj19GBthapKeXlpaMT5e0mJ32fMRK5lkY51YDKWSpuanTchKST5XdRnP5ykUMJqfcMf2mJTKbIdIJnHVYbGgUGA2IwRLizIcfihMOhw0N7PoIxZjYx2N9ivquZ8MhYJaOydPceiwSKVkMsHGhshm0eupc+Gsq5rtVuYgpRKHA5uNgQGRSMh4nGhE6PXVIm+NFpWK9g48XpFIyEgY/4ZQKKmpoa4Ok5liAYUCjabaR/U//VuhVGEwVJVem1twu/nWt4VvgVAIwNtQPWbTaNFoUNuxWOnqATAYHuwM3G7efJOXX6FcflBzP3iC7h4R3GJ7m0gYq42aWhx2zJZq0vLL0etpauHHf8n33hYGA1rdQxGrt4//5X8VCiVaLdo/LCNq7VisdPeAqA5PSvFv/pYfxAhvE4lQLNDWjq0GpbJScimMJoSgp4/Xv4FEfLaAyOXmJ38tiiUEGAwkEoyOkExiNvMXf4nDKaSkVJSxGLdvMjFR/S2dju98jze+JQC9rtIsQf+AaG3D7ycQIJtBr6feI61WTGbxlJ6TGxt88jG+BXI5Ghro7eX44E6pUedyzM/JUolvviVeeoX6eqQUwSBzc7S278hf3BPEYkyMy5pa8e3v8uprJBOUy0KhYGmJ7p7qexqbyGTo7GJri7U1JsZpacXuOIhYz4VolIV54nEMBrq6qa9/8s2Q2YTNxva23NoUf/CMl3qdMJl2slBQUi5RLFIsVc8PiiUAneHzK1N3vejqlpubxOMsLGCr2ZGIBSiV1QJok1nU1mKroVhEpcZk+vw9LUT1zVoteoOohCKVuhp0K1SOAw16YbNityMU6PXo9Y/YINbaH/pPtbrSOYtKTUMKwGKtlrl/dpx/7JGhUqFSff4spxJo9XqcTjIZdDr0hmqt4+NQka5Xqx9dhqrRPORs8iXDs1jRG7DZyGQol6ipfYQxsVb7iLlDqXxIT7IQJhRieoqAX154WfT0YjDg3xCT43JjA52OhgZqaqplzZ/9v1WClkaLWkOtnWKh8qGERvNUvWiFAvE4E+O8+zu5uorFyrkLHD4ijDuQD/z0L24GyOfo7aMitlnnYnub+Tl56szeKdZ+1qTTrK7S2ERLK7W1qFTU17O0xPLSgyy6RkNdHWfPiVhUrq4wMSZNJtHegcGwB+yZ9nzEioSZnSEew2iis1s8jYVjjV246mUoiG9BdveItVW5tUlLC7W1OxmxRHWmSCbIZimXyaQplrD9kVWKu56uHnHvrkzEmZ2lta0qiLBzVKb+x7Qi/PI3q9So1E+yW60cHfMs5GQUis9P37tCJfI95dQgoVxmdUV+fIV8gUAAm435WXn7FpEIzS20tT8iiH6WZ3spcllWlxkd4dpVtFoGDnP+JdHTu4NHI8UikQhQrWWtfLnlMv4N0o/d87D/yGUJBWlqxl6LWoNKhclMNiOTSfK56iymUGC1cuo0GxviyhW5vAJCnjknnM6DiLXzhEKMjcpIBJuN1lacT5EVbGqif0D89tdy9p+5fUuurYLgzW/K3r5n0FP5RSgV2O1sh1helq1toqGBUEgm4litn/ewcThpbUVvILLN+KgcHPzTXUgeYLUydEqmU4TDrCzJ2emqdpdKxZlznDgpKodez41olCuXGR9FCNraOT5IZxd2+1f/4lNSKpHNUiwhy2RzCEGNnQMrk4rJarlEqUQmg1qD1YbqMzkbtYZ6L739nDrN1CTxOJ9coabmqRwMng97PmJFtpmZIpXE21D10KtQLJLJUCw8VDkNCAUGffXLy2bJZR+8pNXS2sbAIXwLJJN4vHg89PTgcu1g6adSRVOzCIXk4gJardwKipF7FEucPv35M/DaGhoaMRlZXWZmmnB4p4Z0wIuPTkdjI4MnKZZYXiS4Rb6AyYTDwcBh0dtHfT265+Xal0ywtsrtWywuSo2G/gFOnabe87i78ydDqcRoIh4nEKCtHb2eWJRCgdpadHvfZuiJqWzf83m5tSU68uRyhLdRKLBYHzplUCoxm+no4NXXSaUYH2N0hNY2LryEyfyITPWLw56PWNEo8/NoNJjNuOsfqNrkcmwGSCTIPlwDrVLh8crKacTWlghuPXjJbMFdz9/8nYhF8S3Q0IC3Ab3+qfL7X4laTXcPm5vi/Xfl/fsoFDIa5fQZTp2RjU0P7aIqImBmC7kcCwtEIzs4qgNecBQKtDpx6DA9PZRKlMogH2g3V/49N7Y2mZlmfExuBjAYOD4ozp3HZtvZammVijonmTQLc7KvT1isbG3JdBq7/U/aLlJvoN5LPsfSojx6TGQyrG9IjVrYrA/dEpXteHMLb31HTE/KsRF8C3JygrlZ0d5xELF2hlyWUIhgkHIZhxOvV+h0DzZDwS0+eI+FeVmR/f4Uo5G3viMaGonFuHNLjo48eKmvXxw9zrFjuOvR6rBYnlDt6WuhUOB0MnQKjUb4/SRiWG2VEpLPLxUrwjwer3A65eoqwSBrqzicL/TtdcDO8WkxyC5SLlMuc/culy7K7W3qXBw6LDq7sTt2fGA6PT19Ip6QN66TyUqzmfv3aG3l3Hn5NOVXe52aGo4fF8M35PANIhFZqW5//Q05eOIRSkAGA/X1HDosFhbkxBgL8/zy5/Ltd4TdURU1fQHZwxGr4hyxtSmFoN4jGpsfKj9Lp1lclBPjrK0B5LJEo5TL1Nrp60etZnaWa1e5NYzBWH26NBq8DeTyOA1ProFWKlEsPtBy/ZRPjUukpFh8IG0gKs9eL/0DbKwTDNLS8oWaHRoNTU3Ue8X6ugxuyUWfMJoOItYBu0Y+TyrJvbty+DqZND09vPoabW1fr6ajWCSbJZejUECjRqNFr3sgz1oqVU9lcjlkGZUanQ6tFp2Orm4CAXHtEzk6QqFAqcjgCQZP7BMBw3z+wadWa9Bp0eqqfldAsUg+TzZDoYgso9FWL4vNxqGj+Hzi3j15/SrFIqUS3gYGDkmd/vMhqLLiGTjExobYWJf+Dd79PR2dtLRSa39B/R73cMRKpZidkRvrKBQ0NdPR8dCJa1MT//pvxKdZwZlpfvaPMp3GWSe6e7FYCG5Jt5sf/EicPoPHA2CrwW7/igqrxxlVKFh9/D6LXo/TKdVqymWCQZH8g6N5RaHSYsViodaOyfxl/SsaLe0dTPa5qwAAIABJREFUNDdz9zYb68zOVE1uDjhgVwgFmZxgfo5wBL2Brm5eflW6v+YWJxplapK5WQJ+Ghppb6evX5pMVcOaZJL1Vaam8PlkLiucdfT3096By43DySuv0tUt1lZJJqmvp6kZoxHFXtBu+Er8G0xNsTBPNktDI93ddHVJjbbqSlGxApiclAE/2axo76C3l7Z2TGbq6/nBDxk6LdbXUCior6elDd0XNx12dROPy9s3mYyxsc577yIl3/0+T1N3vXPs4YiVybCwQCCAEDQ20tr2oHkTMJmrmhHlMqEQ4TBKJe0dDJ2mtZVIBL+fcok6M0JUW4gqcqtPeQCwsc7wjWpT8GdxuzlzDo2GeJyRe3wqV6pW09Vd/afTfcWGSauhtZXGJhRKAgEW5nfckviAAx6JLFMosrDAr/+ZuVlyWYxGVOqvoQ1TKpHLMj3N7Azzc4TDpFJsbLC+LpNJenppbCKTZn6WDz9gY0OGw2TSGAz45nn1dYZOYbbgbcDbQFMz6RTu+p3qVn6elIqEw0xPMz/LwgLxOIU8S4uEtmQqSVcPNTbSGUbu88nHhILEYmTSrK6wtMgb36S7B7OZtnYamwj4USpx139F4ZjdQUsrTc2srrK8xOiINFvE2fPPI7X7BOztiLW8xNYWCgVeLy0tj1ZUKxSYneH+PZYWGTrFn/9Ymi1iYwP/Ouk0Ab+cmMDppL1DnDsvB08g9E/irfUpC/P89L/L+Tm2th76+cBhamqFWs3SIj//Jzk+Wv25wcA33xLlMi2tj2iG/RxqDc2tNDSgUBAMsrj4+bqSAw54PpTKpFKMjfBf/l4Wi9Uii+0Qo6NCp3+o0fuLKBYJb8t/+P+4fo1SifYO0dDA7dtyYoxFH+/8CI+XUIjhG/yHfyfrXKKpmUxGLi/x218jpXC5aO+sTqlOJzhf0HOXr4WU5PNyfo7/89+zuoJCQd+AUKm4fVNWJLD/0oReT8DP++/xn/9e9vYJm41sRt64zpVLmM3CYsHYWW3b9zYAX13nrNFgsYrmFjk3x/IS62vMTsvtkMg1H0SsZ0e5TCZDIEA2S00NthpMJh5peV4sMD7Kok92dtHahsUqVCqUCrRaLFa8XmE0kkxy764ESiVx+CiOp0gM9vbxN38nopHq7md0RF6/ikpNW5tobSUQwB+Qzc2ivZ2+fvR6VGpaWx8rXAFKJSYjVhs1NVUvq3Smaj55wAHPk2SC2zeZnJAVkUalkmSCkfvE43JtlcEToqPrK2w2g1tMTIi5OalQ8O3v0t2N3Y63QSzMy40NUkkyGW7fYnYWT4N4+RXOnadYFKP35S9/wfa2HBkRda5qx+u+uf+lZG1NTE7KhXkaGnnjm6K5BVmmsVGsrMjgVrVB+NJHhIL09Io/+x5dXRSL4sMP5K1hlpfl3Kxoaakmir7ysuRypNPMz3Hvjhy+weoKQLnMZoBf/Fzm8+Ibb+74R/667NWIlU4TjRDeppDHbkdKMlnKErX6obResUgqxfSU3Nrk5BCtbaJynGis+KzbRUXYbX6We3eZnBAaLc0tTxWx2tqrUhSVhrBf/EzMzcrGJjF4guZWNrfYDGB30NnFSy9TW4tWi9GERvNYT50QaHVYrbhcLC2yvU00SjqN0bgfFpgH7BWKBba3uXFNTk0C1cgUT7C+hm+BRJxIWBaKorOTeg8q1aPL3EMhZqbZDmEyMXRKNDZSEXc2W0SxKPV6cllG7rOyRFsb587zne8C2B1ielpmMszOyLPn9ttNXy6zvs7igojHpcvN+ZfQ6ykWMJkwmsTCvFRr2N7m2lVSKQYO8eqrHBsEyGaEf11ubbK8LIulr74sUlIoEAmzvsEnV+QnV7h/j0Qcs5lslnCYD9+nrk5eeEmo1C+WpvuejFhS4t9gaZFcDqBcZnKS2loam3C5H+q0TyZYX2N9HQlDZ0RrW/Xnbe383f8o1OrqLsdkYm1NbAbk8iKZ9LN5DJIJJiYYH2dzk7ffkW9+C4tZJOKsrhAJy+0gM1N4vKK5heODsqkJrU48ZtQxm2nvJBoln2N5kbY2OjoPItYBz4+KRvv168xMAxw/QWeXWFmWM9NMTTI1RTpNOisjZ8TJkzidmB7VJZJIsBmQthr0euZmGRshGsXbgNfL3/4Pot5DscD6moxGaet4IApsNtPeIVZXZCxKsfj8PvJzQhIJk0hKrxcpuXenetze0EhfP994U9R7GLnH0qK02YTH86BJvNZBU4sI+GUy8Vj2ZoUCwSCTEwxfl9evMT5KIk6tnbZ24ZuXoRAb66wss75etQB9cdirEevuHT6+IuPxqgTn7WEZjYjmZjo66ejE6aTiPxSNsrxMuYzDQVsbtfaq6VwkzNQk9R7a2rCYMRlBIkTVbe+ZEItz+yYBv6yvrxT4CY2WcplSEb2uqtO6vCRXloUAWRat7V9YTprPk04Tj5OIk04zNSVTSYpFEgk+viKtNtHWvn8SIwe8+Ph83L7N8hJS0tbO0ClxYojNAA2NGAz4/QT83LyBLEulQvT1V3/+uaV6Is7GOrEo8Ri3blIskM2yscF22x98CQTxOOk0ev2DA5WKGHGxSDT6+XLcfYCUhLflZoBkkpUlhCARR0pWVxk4hMmEw1ndGxlN0mB4cOKu02I0ksmQSHy1KWg6zfY2UxMMD8srl1hbRUJXN339YvAEVy4zcp9gkOVlblzn9JmDiPXUlMtcvih/+XPKZaQkl+OTELdvS7udw0cYOi1Onaa7B7WacJjFRcxmvA04nBgMFT8Ree8O//O/5bXXxb/4CR1dJJP4FmSln+5ZtTfFogzfkLkcQ6fweKp9+Gp1xb1JtLZht/PxFS5fkhIhFHgavjBiZTP4N5ifY2GBtTW56GN2mmiERIJf/QKjUf7gh09VLXLAAV+L8TE+vkw0Qp2Lk6c4dYYLLyGl6O3DXc/li3J0hIlxclkKBSmE0OnweB8RsVZX8flIp9jYkO56YbMxPiZvDTM9zZ//WAwcrjr+/PGmIZUil9uHeywpCYdZWWZ+nuVlllekxyOQXLsqx0eZn+Ov/qUolcjmKP5RtC6XSMRJPMYeq6Lpc/2avPoxw9ex2mhu4ZVXxYWXOX8Bo4liiVs3WFrkt7/B27Djittfi706z1WsHMrl6gXd2iQSIRZjbIRQUAb84ugxDh9hbZVoRGq1D1nwaTTC08BLr7C5Kf/3/w2Pl1yOVIr+Q5w6I2xP3d4kJdEo6+usrdLWzkuvCJe7+tLxQYxGYXdgsaDTkUwS3haZlFxfE3/8+GUyRKMs+ZiZYXxMrq2yuUkqSTxOLEomW90v7pwf8QEHfI5IhPU1RkeYn5WlEh2dfP8HorW1usVvbOK119Fqhc0mR0dIpRi+jkolC0Vx6jR1dQ8VYkiqjfaNTfzox6K1DaOR+/fE1KQcH+XkSdnZSbn06GEU8mQzX/jqXkdKZJkjR/ne26KujmyW+/fE7Iy8dZPXvyHLZeSjHvnK2j2X+7KIVZnoxsa4cV1eu8rGBi43A4cYPCHOXaCzE52O44MimZBLPkJBRu/LsRHR2IjX+6LoC++9iFUuU8gD1Qqljg6+8Sa+BXw+lhaJRgkGSSQIb1eWeGjUNDbR9IdKzUr3lcfLa6/z0QfcHK46NTQ20T8g+g89my3wdgj/Buk0djtHj2O1Vu9Cs5mWVhwOzBZ0WpaWcLnxb5BMSll+kI4sFsnl8PtZWuTmDe7dZWyURJx8Hq0OrQarDUWC1B/kMwr5LzzfPuCAZ4OkLNkMcPMGUxMyFMLlordPnDv3wETGbq96tum0olyW42P4fGh1KBSytlaoVA9FLI0GowmdloZG3vozOjpQq6ipJZsRly7KgJ90GoUStfqhM1opq4HqGSbwXyAEWi0GI1otPb384IdYrcTj2GrY2hJ3bslQEJOp6pX6WcplSmUAhfiyq5JMsrzMvTvy+lVmptFq6erizFlx9jyHDlWldjq7SKfElcsyGmFpkdER2dQsrFbUj1cdttPsvYhVKWVJJJESh5PBE/zox2Jzk0Ufd+8wNiKnpggEZCZNLMrxQY4NioYGXPUPPS0OB+fO09HJ2++QTgudHo8HhwOr7RlIiEpJIEAoiNtNQ2PVV61cJpeV77/HT/+Bd34ozp6nsYnINsuL0mLF4XioUT+VYnWZW7e4OczIPbm2SjKF1YLHS1MzHg91LnHrphy5TzxGLsd2GKdyn4jTHPBiUpbkstK3wG9/w/IyFitnL4jjg5gtDy2VhKC9A40GiRBCxqKsrVAqYtBLjVo0NDx4Z00tHR0iGpG1tdjtGAwUi1jMmMwoBOkMiaSwWGSh8NBEWSqSyUijCZvtsRpC9hZC4HaL1la2Q7K2tjp1qNXU2DDoKUsSSaHR4qyT5oeNrApFCnlZW0tFEvCL2Axw5aK8+jGT4yiVdHTy6mvizDkGBh4sOyop3JdfEdmsvHyRkfvYamR3NyazeBEu+N6LWIkEK8sk4lVzkPYO0dhErR2nE4cTl0vU2uXcLNvbTE2i1WGrwVmH5uGVmlaL1onVJlpaZCqFSoWt5pmtIKQkFiUel7Zaamqrp1PlMgolCgXFItevsbZGYxNTkzKb5fBROruqZfflErEYCwvcvMHtW4yOEAqh1tDdQGcXHZ00NeNyCVsNQohUUk5PkUqxuoJOexCxDthBcjmWl8XU5P/P3nsGSXZld36/m97byszK8t51mfYO7eCHMxjDHc7QSOTsBKkNSSHtKqhQSCFFKPhBCkmhiA2K+0XSLsXlDndJYjEcDjkYB6Ad2ntT3rusLJem0vurD5noRncXuhuNage8X9SXzHz58r5b791z77nn/I8cuk0mQ00Ne/fKzi7xYJKpxUJdPXv2ksmIWEwO3mZ+jnNncbpkXYPweSuhg3Y7dfXcukk8TmABixmDkdVVQutSpcZoFDYb1X4SCWZnCAQIhSgUmJ9nbBQhqGv4EipqCkGVB68PIBphYYGyVzAQIB6XOh0mEw4nNbXkskxNshzE6aJQYHZazs1iteGrFpuKVOVyrK5y6wYnTzA2SiZLbx979opXDtPSeo+QqVqN08WuPQQWuXmdtTWGBxkZwWSmvuEZ9cNDePks1kaUiXFiG5jNdHaJmjqEwGLBYqGpmaYmGpvEiY/k5UtMTHDpIpGI1GiE0YjJfL/fTKtFqxVPUBj3kSQTMp3Car1bu12lwmAQnV0cfZUf/0f57t/gcuN2U1dPb7/o316ZMBYKBAJcu8L7/yjHxlhbxeWmvZ19B8T+A/Rvx+2uPKjlPbDAoozFmBzH4+HObpmCwpaTTjE4yO1bIhCQvmqamtm5i5YWualvzmqlf6Cs4CDW1uT1q1y8gN1BXT37D1Qsls2Gv4ZisVJby2SmsYnRUTkxiVqNy0VtHXX1TE9x/Zps7xBt7aRSDN7m4gV27RFNTV8GTab7EAKXG6eTZJKpKa5cYt9+0mmuX5NLS5hNeDzU1VFfz80bXL4kd+wUJjPpFDdvcOsWr70uamo23x3IZBge4uwZTp4gn6Paz85d4vBR9u3fZKZusdDfL6cm8dewFGB6mqtXhLvqhbBY6j/5kz953m34fIyNcfI4I8Oo1Bx7VfT23qPYqNFgs2E0Cp2OdJpMhkgIlVpotXg86HTPQndECEwm0dwsevtFZ9c9SrU6HV4vnZ3s2cfuPeLoMfHqa6KnF5erEtk4NcnJj/j4Yzk0iFpNYwOHDvPqa+LIMVrbcLnu5hrHY0SjDN4mm8FoFE3NNLwA95PCl5JkkrlZfvJjLl+S6+scOMgbb4ntO4TD+bDy3DotLhcbGyQSxBOVkbS6RrjcFdVws5lUSuRyIrAor17hw19z5mPyOfbtF4eP0t6ByYRBTzxOMMi5s5w9w8Q4KhVvvi3efJvq6hdUX/yJEQKdDo2WbEbkcmJ8TF44z0cfcvUyDgdHjoqDr1BTS3lIiUaZmeHcGc6dJbCI2803vyP2HcD5gLsolSKwyImPuHJJLszT0MjefbzzLdHfj9W2SSqnEKhUIpsVQojVVZaXScRxOERHZ6UGxbPnTrLqy7fGCocYuk0kgtdLY9P9hXqtNkzmcreKZFJeuczEBLdvYTLT0IRW9yxcZ+XC4ZuGhLqrcLnp6CSVJBar6LVTDifJE1jk+jXOnpVDt0kkaGtnYDuHDov+7bS133+jeDyUp5krywwN8WroqV+XwleW1VVGhrlxTS4FsNvp7RN79uJ0PWLwcrmx2ti1m5UV1tcJrXP9Gn0D1DdgMGCzo9Nz6DBGI4O3WZgnEsFgoKubN9+mrR29nu4e1GrSGa5dZXIcwO1m7z727K3oXH/JEAK3m+5uXn+TmzcYHmJ8jHQag4HePvHG21T7cTjYtbtSbeTmDZaDAHV1bOtl126amzc5bTTK7Cy3b8n5ebRaWtvYs4/+fmpqP7MZWi0NjRw9xviYmJ+ToyPcuiUnxkVrK3rPU+yBR/LyWayNDSYnZDxGQwONjXge6L6ywH6pRDYr0mm5skwwKG9cp65OWCyVwiLPESHQ6YRGg8l894HP54lGGR7m9ElGhkkmaWhk/wGOHBM926iu3mSl7/HS0ITRSCzG1ISMRr98gVMKLwojQ5w6KVdWsFhobRfbeiuF6h+JSkVbmxgYYGxELi4wM83IMI1N+HzodOh07NpNZxfJpFiYZ2WZhiaqq3E6MVsQAr1elAUBjhwlFAKwWPB675+nfslwuTh6jN17iMfFzDS5HA2NVFXhcGI2oVJjMIidu2huIRgkHq98xeul6jNsSXCJwVtMTRLbwOGks4v+AbGpEMl9zejeRm8fc7NiclJOjPOrX8pvf0d81q88G14mi1UokEwQDhGJYDbj9WG1baLXXhbf8/oY2M7aqlgKyOFhggGuXqGunvb2io7fc0Slun9xHY8xNsKNa9y6STxGlYfde9m9V/T24fFi3GxdqNNhs+H1YTITjRIOEY1isTyfNbvCl5VslmSCoUF59TLRCG0dvPoa7R1YrY8VqaRSUVtPdw8dnSQSLC4wPSWnJsX2HZhMqFTYHZVtf4+HjQ283rtbv+Wvm82YzTicZDJQjon/sqtoanW4q3BXVcR6ikU83nu2M4QauwOrjSoPuRyA0bj5BEJKSiUCi4wMy9A6egNt7XR3i7a2R3ubdDqcTga2EwxWskvPfkxfP83NmC3PLZfmZRrecrmKeyGbpbGJ+vqHhbdaLHR0EgqxvCxWVuTsDDeuy45Odu4SdfUvlvtbSiIRrl3l+lU5MU6Vh+YWDh8RO3bR2PSwL+p01Nfj8TAeZn2dlWV0DYrFUthKkkkWFhgaZPA2KhUNDXzt6zQ0PO6AJQQ+H51d9PUTDDI/x/wsU5MymRQOxz02z+nC6frM85i+QFnwlxeV6mHhVCoVlkdFjZW3GxYX5dgoySTVfvr6KrXHHufXdTq27yC2wemTTE+xscH4GL19NBiem8V6AVLCHptUivExFhcQgvoG2trFI8Nba2rZu4+2dmx24jEWF5maur/W4vOlVCIUYnKSy5fk4iI6HZ1d7NkrBrbje5TrQ2+gtV3UNyAEgUXGx0gln0mjFb4yzM/xkx/LyQnMFnbuYtdu6ur5vOG1ZjNd3aKhHp2O1VXGxxgZur+AnMLTILbB6Ahjo8zPUyzi89E/8DncekLgdNLaXsleLRa4dEGeOlFxRT4XXiaLlU4xMc5SQAJ19aKt/dEJGVVVdPXQ0orbTS7H6gpzsy9W3d5ikbVVpqcYHWEjit3Btl4xsIOGRu5LEnwQg57WNuobhBAsBeTE+It1aQovNcUisRhTk5w6TmARm409exnYLsolcj4XZjNt7TQ1C6eTTIalAFNThNafTrsVPkU8wfQki/NEI5hM1NWLnm33VLd4JCYz9fUcfIXOLoCRYS5flGVBn+fCy2SxMhlmpuVysLLGan0Mi2U0UlVFUxO1dWg0xGIEg/KFqttbLLIUYHaG9TU0GuobGNhOR+djReGXvdINDahULC8zPSXTL9KlKbzU5LJMTzE8yPgEySRuN/sPiN6+J9lDMppoaqK9g5Y2YbGQybAcJLbxFBqtcC/pVDn7GJ2O2jrR1k5bB59XOtXh4OAhsa0XvZ61NcZGGbxFcOnptPhRvGQWa3GBcBi9HrcbjwfNo4Z1lQq9Hq9PeL2oNcRiLAV4oYb1YpG1NVaWZSaL3UFrayUu6HHcxBoNVVW43Oh0RMIsLFQKhikofEEKBSIRzp3l6hWZiFNXz+69orUNp+tJLJZKhcFIOQXVZCabJbjEhmKxnj6pTyyWVouvGl81ZvPn3urW6amuprtH7N2PzcZSgBPH5dAguexzkOF+aSxWqUQmXYnmNJux27BaH2tYV6lwV1HlERo18Q2CS5WgoxeEUon1dbm+TrGI201rGz4fFstjjQtqNVYrdjtmSyXLMp1WpNwVtoBsRi4vy9Mn5bVrSElPrzh6jJraLySMZLVRW4vJRDbD8rJisZ4F6RRLAeJxNBq8XtzuJ5lwqNWYzHR28dbXRF0d4TDHP+T6NRmPy2dfouylsVirKyzMk81id9DWLmz2x/3iJxYLtZp0mmikIv3+glAqElpnfY1isaxbIwyfU3vGZqOtXTgc5LIszLOy8nQaqvBVYnJSnDsj5ucoFfHX0NsrB7bLR2bwPByrldpajCbyeaIRqey5PgOyOcJhmUmj0eLx4nqiJXKZ2loOHaazC7uDRILREU6fEqvPfLR5aSxWMMjMDJkMLhfdPfdINz4clYqyOLRaTT5POkXxRSqrUyoRiRAJUypis+Ovwfg5p7F2B93dOF1kMsxOE1x6rLLZCgqbUiySyTAyzJmPCQaxWNmxk55tNHxh5VmzGV81BgP5PJEI6ZRymz51clkiYdIZNBrcbhyOJ7dYDiftHfRvF23tSMnEOCeOs7hALvdMB5yXxmItLsiJcZlO43bTv71ShudxUKlwOHA42VTS+LlTkiTilVrXNhs1NXzeNZbTSd8AVR4yGSYm5OKCMhAoPDm5HJEI169x6qQMh2ho5De/K3q2Cb1BqL/YaGEw4nSh15HPsxFV4lqfBbkckTCZNGo1NhvmL7BKVqkwGNi/n2PHhMXKzDS//qWcmCAWe6Y7ES+PxVpkYpxMGpebbdtwfp5wF7UajfrFzZMvFikWkRKLFa/3c4cOO5z0bMPlIpNmcoKF+afTSoWvBmurnDvDxLhMp/D56OwUfX14PFtQQdFowOWUOj3FIqkUz34L5CtIoUAyRT6PWoXVJh9zg/yzUKmob6Cnl/YOYbYQWufmDXn7Fs8y+volEEgo68TMTDM9XRGFrKqiUCD8eNqvEgoFEnFKJaSkWCIWe9zvPgMi4bvLaiFAkIh/vkTgQoGqKoxGMhmmp1laQsoX1zwrvLBISaHAwgIf/FrOTKPV4a8VNbWYreTyW/DIZHOyJEFSKpHLVQqFKzxVYhtkMhSLSECSzchw+AuNDeWc4sZGVpaZ2eDGdbxe2dEp9IZnpLYj5L0+SPni7YEc/4h/8//I4SEW5snlqKujZxsa7ecowCglKyvcvkk2i9FEXz/eF0ZJM5dj8BbBIMUiHZ2U9fw/F6UShTzDwywuoNPx+z/gX/7Zw2pAKChsSibD+Bgf/Jq/+ksZDJJOYbPj99PYhEa9BSXqSyWy2crdDrR3fDn1118olgLcuE6hgNlMXz/ux0ubeQhSEosxN0tonWQSp4tdu/n9H4gduzaXjd8qXqZqI8UCmXSl2BUwP8/8F3B8JRNcOLdVTdtixscYH/tCZ8hkKsqYCgqfl1KJRIL1NRYXKptM4RDhEEODT+XnJsaZGH8qZ1Z4kGSSC+e3/rShdYJLhMPPzjH4EkzFDx7iX/3f4pVDz7sdCgpfajRqPB7cbsRLMCoovCgYDPj92B873egL8hKsscrlBr77PdHS+sJ5LF9Atu8QyiaWwhOg1lDlYf9B/ut/TjZXKeunuJcVNqVQoFAAaGigo5PHT5D9grwE+1gKCgrPjHyeTFpKUKkwGoT6JZjTKjwHclkyWQlo1BiMT33j/M40XLFYCgoKdymVKJVAgkD9AueEKDxfSiVKRQChQqV66veJYrEUFBQUHkGxSC5HJo1Wh8GgmPDnxh2LpXipFRQUFDZBSnJZGQnL6SlWlsmk5Qsl8PbVRLFYCgoKCptQKhEOi5s3xI/+Up4+KVdWRPZFKvvw1UTZV1VQUFDYhFKJjSjDQ/zde6TT9PTidGF+3q36iqOssRQUFBQUXg6UNZaCgoLCoykViW2QTpOIY7Fgs2M0PiMxPYU7KP2toKCg8GgKBZYCRMJMTtHSQlc3NTVoLM+7WV8xFIuloKCg8AiGh3nvXZnPk0gQiWC14K8VBw7S109rm7LSenYoPa2goKDwCGamiW2g01W0z0dHKJ6XGxtCSuoblDytZ4disRQUFBQegclIQwPfeIfWdoAPP+D0CQZvSbeLI0fRaoRW97yb+NVAsVgKCgoKj8DpoqOT3Xvp6QWIhJmf48Z15uZYW8VoRLFYzwYlul1BQUHhEfiq6ekVVR5hNAqjUdQ1iM5uodezESUQEPH4827fV4YnWWNJSTRaKeFltmCzbXGbnhnxOIk4gMGI3f60CitIyUaURJJ8joerNhqMmEyYzWi197yfy5FKkUxSKlLlwWh8Ku18JJEwGxuYTJjMmM2K417hK4TdTk0NBmPltnc4qKlBr0dKSqVHPNcKW8iTWKxSicUFVpYBGptfYou1usLMNIDXh6XnaVmsUonFRebn2NigWHjYkb5qauupq7vfYqXTBBZZXCCTYf+B52axFuYZGaGujtp6DAYlPkrhK4ROh9ly957XqNHrlOJhz4EnGXUKBS5dkJcuArz9G6K9fYvb9MwYGuT9f5TAzl20tor77MRWUShw8bw8/iFzc2SzDzty525x+AgW8/2TgFCIK5c4fYpwWNbWCV/1U2nnI7lwnv/wV/LwUXH4KNXVisVS+AoRixFcoqWl8jK4zMiwTMSfXe1dhTLR+wlIAAAgAElEQVRPuMZaW2NuFiAakfCyuoeiEVm+ivp6iqWn9StCYLMLX7UsFMllKZVYXWVtjbVV6hv4tL33eLBa0TxgOAWo1Gg0aDSonl9nr63J0VFaWoltUHpq3aWg8AKytMT1a1RXIwRqDVMTcmyUfAG7A58Ps6I2+KxQ5slPHY2GvftpaRGpVKXczsUL8uJFYjH27uMP/uldE+Rw4q7C4bj/DFYrra0UiyQTwlX1TBuvoKAAzE5TKkmPR2SzGI0MDzM2hhD4/bS1P7ua8QpbZrHyeZJJFhdYXADQ6jCbqW+gtvaew0olkknW1wgsojdgt1Nbd/8MJR5jdZXVVTaiADY7Xi9e7z23RT5HIsHaGuEQGxs4nVR5qa1Fr7/7Q7mcDATEwjz5HCYztXW4XVgfuusmJfkcq2vMzpBJo9HS3Iy7apNAg9lZggGSSSTodNTW4fViNlcSDD+NELjdmE0UCkhJNsvCgrDbpFqF201n190ji0WyOa5dRUq8XqJRYjGcTlQqSiVUAqG6u57N50kmCAQIh0kmQWIwUldHVRUOJ0A2y+oKsRjJJGYzUrK6Si6LSkVTC9XV97Q2myUaZW2N0Do6HS4XzS0szDM7Q1NL5dIepFgkGmFlhcAiKhUWK83NOJzolEhfhS8XFitWizh3Vl65REmSStHaKnr7OfgKesPzbtxXiS2wWOVReH2NiQmGh5gcR61Br8dkYlsf2X581ZhMlEpEIqyvsbrKwjzT0+j1uN109+D3Y7NjNqPVEE8wM83tmywuEgoBuFzU1tKzjeYWHE40GopFFhfl3CzTU2JlhWgUl4vaOrq7qWvA56NQYCPK3BxDg3J4SBQK2O20tFJfj78GlxuL5f7oBiCfJ5ViYV6OjXLzhshkMBjo3kZDA14fLhc2GxoNsRgry1y/xsQ4ySSARkNbe+XP4bhrNcsIgcWC5RP9sUwGpxOjUQiVtFjx19w9MhxifZ1LF4hEaGhkbZXQOjV1eL24XITDxGLkcpRKZYkzOTvDyLBYWyOTJptFp6ejk84uurowW8hkmJ9ndppAAKsVKQkESCWRMLCdbb10dGK1olKRTrO6wvAQs7MEgxj01NSSTDI8xO1bvP4mRuMm4R7pNJEwo6OMjzI2hk6H283aqqyvx10lHM67l6yg8DIiBAYjXh/berE7hL+G2RkCAdJpWlpFbx+Hj9LVtclIovD02AKLVSoRXOLcGf7qR3J1hVIJmx0piYSp9tPbyw//SPRsI5uRp0/wy18wM0MigVZLOkWpRLWfvj4OHhb9/bhcXLvK8Q/5xftSo6ncCvk82SyvHOLIUV57QzicpFPyF+/z4QcszEu1GpuN6AYCqv1893vi939AIsH16/x//5qpSTY2ZHlzqJCnykNLK+98U2zfidd7/4XEYkyM81f/jutXCIWlyYTRyK9/ictNczNf+7o48Ao2G7du8Bd/LqeniEZxOimWSMRRq2lp5T/9A7FjJ3X1T9iT6TTLQc6dlYO30BvI5ymVqKqipZWB7eLiBULr8q2vibp6Njb42T/wi5+zHJR6Pf4aAotEwhhN7N0vvvOb9PWj1zM/x/lzXLwgi0WEQK8nkyEe4/xZdu7ij/5z0d6O2cz8HOfO8rd/LdfXkBKVCpMJdxXra6RSNDWJxkY8D3gjF+a5cpm//zs5OkI6hdWOxcJPf0JDI3v3yldfF9t3PmE/KCi8CKjV+Gt4620GtovycLQRJZEgnRFuNz4fdgcmk5Lm8UzZAotVLBIMMjbG0CANDezdh83Oxga3b5JMMD5WiTJYXubKZS5fwmCgppaubhIJVleYnuLiBTZimIx0dTM8yOiIXF9j3wF6tgFMTXH1EoFFZmZEJsPqCqMjXLrI1CR+P03NNDQyN8vsLMNDtLXLfftFIMCli/LaVQx6tm2jvhGtlrVVFhe4fBGXC71+k+2i2RnOneHKJRIJtm/H58dkYinA8jLnzmC1SaNJ9PWzFJDnz2IyU1tL3wA6HbENLl1kZprJCWrrntxiFQpkMoTWWVvDZqejg5ZW9AaMRpFOEwrJslsvHmdqkls3mZygo4PWNppbWF5mZprLlxi6LaurhddHbR2pFGtrzExTV09TE+0d5AusLDN0m9u3GLqN1UpjI1evcOqEnJ+jppa+PoCNjcp6K5MmkaBQ4NMJJ6US+RzDQ3z4ayYnMBjYsxeXCwSjwywv88EHOF34qnG5719xKii8LAhR8S6Uo3OlJJ8TuTy53OZeB4VnwNassZaDBAIU8hw5yn//P2I0iblZfvE+V6/ItTXicebnuXlD3LolV1f4+jvi6+/wG98gnWZ0hP/rX8orlxgbld3dVPuZGCccotrP935b/Nb3AY5/WMm9jcUoFllc4BfvM3gLtZpv/xNx5CjdPUyM89EH/NmfypkpLpxnfEzevkUkwhtv8gf/VPQPYLYQCPBv/5y/+ffy3FksVnbuvv9CRkc4/iHBJXbs5F/8t6KtHbOJiQl+8h5/9qfy/Fl0OlneXlpa4vU3xde/wdffwV1FOiX/9/+Vc2dZWmJt7Yv3KGYzLS387n/Ct3+TdFpMTXHh3N1PN6IMDbKwgE7Lb/+eOPoqtbVkMvL2Tf7n/4nFRS5dkPsPiNo6gEKBbJbtO8Q73+bV1wBmZ/jf/hc5eJsb16ipoaaGj0/J0ydxu/nGO/zhfwYwNMiP/lJsRMmkN8mNLBZJp+WNa3zwK1xuXn+T/+aPcVeJZIKfv88vfsbP35dNTTS1MDCgWCyFLwlCoNOjU+7n58oWWKzyPo3NikrF2bP8n/8HTU3S5RYtrTS3CK2O7m6WlhgZlqsrGIwMbJfbeoVGg8mE10dnF8ElhgYJrbO+JgwGKVQEl/i792RgkZY2odHw3e9htuDx4K5iYpzAIgiqq+nuoaYWIaiu5uArlEqi2k9XN0ODBJdQq0inmJslHkOjJZkktI5Gy+K8nJsRhfz9F7K8zMSEFCryBYYGWQpUdq0iERwO0hlWVyrTLoOBsRGZz4mVFdra8fvFvgNy917q6qhr+OI9is1OT6+orcNkRq/HYkV8KlfR6+PIURoaRCSC38/SIoFF1tcYGyEa3fyEra2yt1eYTKgENbWYTJX3EwmWAmxsYDAysEO0tGI0Afh87NrN0hKrK5ucLZ0muCTCYZnLVVwlZ04Lo4l8juASuZyUEI2ysky2ewt6Q0FBQaHMFlgslQqPl8amSrDA+/9IQyMdHbK3TzQ0UlOLw8nCPEuLpNPYbLS109Ao1Wqh0eB00NrG+Cg3bxBPiEyG2npWVllcYGiQYJDubto7aW/H46G6Gp2OZILAIkLg8VBXh9MJYHfQ2Y3LjdmM3kAmXVnrJBJMTzE9VWlqNCpNpnL4nCzJ+93PG1G5HMTlJptldPhuhmwkIh1OkCQTCCE8Xvr65coy42MynhATE7S20d5OczO1dTgfcDY+ARYrbe14fej1oMdouCflzWKhsQmTiWCQmWnW14jHiW0QDJJO35+Hr9Nhs1HfQGOj1OuFSoXzU7F8qRTra6SS6PW0dVBTW/nI4aSzi3KS+IPkc0QiJJPkCwhBNMKVy6jVlCTZjMzlsFiQklSKUnELekPhWVLIk8k8QnZIo0GjRaPZyi2cUolSiVwWBDodQiBL5HKVlyrVCy0wUSpVEleEQKdDrbpnilk+IJOm+MjHQaDTodWgUj1hmmuhQCb9qfTNres0WaJYIpdDykrVlefyH9kCi6XR0NEJkM2JG9fk2CjDQwze5pe/kNV+Ojr4/R+QzSIlNht2OzabKN+RgFZHfb2o9qNSScBu59XXaGzA5RTDQ3J+nsCiPHkCg4HuHrHvAL/1fRIJFhep8mCzo/5U8/V6fNWoVaQzJBLEY2i1hMNMjN99+DIZPB5cLvw1aB4IQ79DPM7UpLzz/8jlcDorgUMqFdt6+Rd/LC6clzdvMD8nAwucP4PBSFMz3/oO+/bT2/dFu9RooKbmM+WvUilWV/j7n/DRB3J1hVwOjYZqvzAY0GjkfYOI3U5bO1UeoTdskn1cyJNKUSii1eJ03F17aXU4nJX11kOQJbIZ1kMUCpXfLZXI52ltpbYWh0PRxXj5iMeZn3vE2GpzYLfjcGxlmFwhTyolV1YE4PNJjYZ8npUVoVLh80mjSbzIKRP5PMmEXFkRGg0+nzQa7y8+ks2yMF8JLX4IQoXPJ51O9AbxZFoBiTjzcxhN2B3Y7Vvpky8USKflyoooFPD5pNkinovDf2ui28tZPrW1mE1i+w65skJwqaI9uBFl9x4MRtRqikWSSZIpslkMBoSgWCQSIRaTUmIxS7tdFAqYLaKrh9o6sbEhV1eYm2VykqFBqVKJAwfJ5jBbKtlIn57CR6MM3aZUQgjicbRahKCpmddev+eYSIRCntY28aC0xB2qfRx99e5CJBphcRGTiYZGDAakRKent0/4a2Q4xMoyy0EmJ5kY5/Qp6XCIL26x1OqHCfetrXL2DFcuyblZmluoqaHKg9dLJsPaKonEPQdrNJjNlVnqg6hUFR2NfJ5wWCaTlacklyMcevQDplbjdNHZSXcPGg1SUiwQDrO4SEsrNbVKqsrLx/wc771LJvOwY7p66NlGz7at1ChKJllc5NQJhODoMYwmEnFOnUSr5eixu6v/x2FulrVVoOL7eQYkEszNcuoEJjPHjlHtx35vayMRfvVLFuYfcR61hqPHGNguPN4nXMEsLPDj96iprfyDttCopFIsBzl1kmSSo8dobHo+W9RbFt0eXEJKDrxC/4CIRBgd4cRH8sRHTEwwNiaqPOj0ZDIyHGZlmY2NysI/nWJyUs7PISV2Bza7vHFdxGJ4PLz+BjU1YmmJk8d57105Ps7oqFyYF8UidXXMz7O6QiZDsVhJsA0s8u7fUiriqyaVwu4gEWf7Dv7ZfyFUKoRASsZGGRkik8Vfs8n0UAhUaoCWNn74h8JqQwhKpfK1UO2nvh6DQS4FGBsV23o5dER4PKwsc/sW770rL17g0gXa25+6bFUwyIe/ZmIco5Hv/KY4coy2dqRkaJBTJwmHPsepNFpMZjRa0ilmplldkYWCEIJ4jMkp1tc+wzckKHepVovfz4GDfPf7wmikVCKZkENDnPhINLdQ34BBsVgvG5OT/Jt/LRNxxCf/5Qd5621Rng5uocWKx5mZFj/9iRSCxkZhd7C6ynvvSqORxiZhs1fy4h+HwdtcvYJKxc7dz8hixTYYHxPv/o10u2lpERYr9nt3B8Ihfvr38tqVykspKRYrrtdPu9d0OsxmUVeH0/WE69fZGf7dX8i+AVEqUl+P2/3E13Q/iQTz8+IffipD6/j9wunC/Tz0d7Ymun0pyOVLXLooD74itNpyhqw0GoVWK8tpQF4vvX0EgwwN8vEpdDoOHWEjyvgY16+ytkZ1NU4npZIYGZZDg8Q2+K3fFkeOYjRKmx2DUWg0UiXQ6/F4aOsQa2tyZYVTJ0ilaGxiapIL57l2VXZ1iY5OcjmhUslrVxi8zU9/Iru3CZuNSJhf/5JTJ2VHB/sPiAe3WBoa6O9nYYHxMX75CwYG8Pjk1IT4+GN+9g9y505ROoDHy8ICP/+ZnBgXA9s5dBidDncVej0qFVrtM00nVKux2TEYyKTl1aucOsnSIvkHIkoegsVKbR21tUyMc/sWVmvlzaUAp47LsrD9Jt+y0NKK14sQzM5y7Rp19dQ3oNVy9QoXL3D2Y2m1iq5uRX7wZaWhkdY22tqw2TcxWe0ddHZh2VIxPaOJaj8HXhFC4PN/oR2ywduc+Vhu3/4C5Ul5PPzO74rDRyovwyEuXZSRCEKwdx8trZWmatQceEV6vOKJ3em+at54SzQ109xy18n/ZWIrYgVBrSKVZGwUlZBGo6irk6kUS0tI8HrxVdPUjN/P3CwLcwwNIgTFEuEQUxPMTGMwsH0H9Y2i7MoLrXPrJv4aqRLCamNulkQci6USxKHTsX07y0EW5rl6hUSSlhZGhhkZJhHH4ZCdncJgQEoxPSXnZvn5PxJcwuFkfY2zH8vbt2hsxGCU4oFnorWNg4f46ANWlvngV6yvyZpahoe4fo2ZKbq60OnQaCgW2Ihy+xbhEMUiTifZLJEIOh3NLVT7n/pzYjRWOjMWY24Og1Ea9Jw/x+VLZLIIFcnE49otgx63m74B1laZn2dinHwBp5PYBjMzbGxs/i29nioPbR2is0uGQgzewmSisQmDgYsXGB8jEqFQRKNVkitfVrxe+gc4fET4/Zt8arVhs2P4JCEplyWTJZ2mPKc0GilJImE0WqxWNBoKBcIhdDosVrTaypIimyWdJp1Go8HlQqfDZqelFSGw2ch+hlsyn698K5cFUKnRarBaK3uuySThEONjcnyU2loiYVZXsVnRGyqxD5VwITCaKkG/d8hmyaTJFypJ9MUipSJmS8U/X86VvPNkaTQVITq9ruKYeTg2O8deI52qvJybY3W1sro6+Io4+MonxwmsFlEsyuWg0Okx6El/UoZQr0er/aQZSYoFSiVUavQ6zBa02somgt1Odw/V1bjd6HRkM8TilR8q5MkXKORRqdDqsFor8+w7lDNhkgkKhUpVZY2GeIxiEauNwmdUSioUKv+RbBatBoMRm+0pBmVsReSFlt4+GY1y5QqTk4yMSJ2OUolUUtbWs3c/O3bS24eUhEJEIty8IX/+Ph+fplCgVMJo5MhRfviHNDVjMPLqayKbZWpKHv+QkyekWk06TWxD7tsvjhyjvh67naoqKaW4eIHJSXnjOtkssoTVRl8/u/fS0YW/Rmq1jI0wPs6vf8WZM1KtplBAq6GxicNH2L1nky2W3n50eiIhLl/mw1/Lj0+j05LOSIuF7h5x5BjHXsVkFi1tfP0dzp2VFy9w/RoqQUmSTlNXxze+Kfbt/+I9+gh8Po4eYynAieP8+f8ry0NAeUfK4yGdYnHx0VtQd9Dp+Po3aGnh3Flx8zrHP5RmM2YLDofYiMqH+BhfOYRGI370b+XYKNPTshw+VMjjr+XNt8T27fh8SuTFy4rJjNcrmpqp3yxbQ62u/JWJRFhaYnYGnR5/NY1N5AucPoXDSV8/DgeRCKdPUOVhWx8ORyX3Nhxmbpa5WaxWjh573IbF48zNMjfD8gqAyVj5leYWgIV5Tp2slPWZn5e3b2GziYHt1NaRzciFBTE+RjSKSkVTE41N91xdJMzCPNEo+TwGI8kE6QxdXdTVY7cTi7EUYHSkIh1ns1HloatLer3oDY+el+n11Dd8yuUgsNsJmVCrqa2jraPytpQVqYT5ORxOamqYnUVKurqprcXlJh5nKcDoKPEYuRwGA75qurpxuysOkvsIhbh5A5MJg4FotPJXdgtt3y69PgyfanwyycoyoyNsbNDURJUHq42bN0gmGNj+mf6SVKryf1xawuGgsYmBgbuzmS3nSUYUjYa9+4TbLYHePiEEdofo7ZO/+3ssLhIOk4hTKmEw0NxKd49oaq705vYdQq2Sbe0sB0mn0euxWPBV0z9AR1flPm5q4eir6PWsr7MRJZ1Gp8Nioa+fbX243JiM6PXsO4DHy9ycCCzI5WU8Xvx+Gpvo2SbMZnRa0bNNfvf7jI+xsEAhj0aNxVqJEhzYgcstVCp6esV3vyeB5hah02EyivYO+Y1v0dTC7EylllW5hfX17NhZ8aTX1vHaG9TUiOlpGY2QywE4nTS1iH37qanZvNM+3XvtHbz1NeobxIGD93xks9PWzvd/RwgVra13b0GXi917MJtFIkFdPXYHPb188zuisVlGIpXJpseL243JRC5HNEpnJxYzvX24XGzfcY83X6Phra+J9g66e2hoREricSElPdvweBjYUd7iFrkcuZwIh+5uZe3bL/J5unvo6ESrpaaW/QfIZcXYqFxbo1REq8PjpaFBtLXT1qHo4b7EqFVCq8NofIRnKRohGOT8OYYGiYTR6XA4aG5BSs6dZVsvtbUYjYRDnDpZCcYpi58BkVBFvMbnY99+ikUiIYYHESo6O+8JAy6TSnLzJkODjA6zsUEqRT6PSoVez/gY23ewcxfhMLduElonnye8zuICU5PUN6DRyAvnGRqUkxOiVEKjwWKh2k9DI/0DNDVjsVDefR8dZW0VlYpMBgmJBKEQahWTE4yOEg5VYlJUKoxG2dHJjp0cOnJ/Ux9EpbpnPWc0otFUrH5ZgrVMsUgoxOBtLl1Eo6HKw3IQg4FwmM4u/H4unGd0hLIYnkpFNovZQkMDBw+xb3/lyKtXaGnFaqO+kVCIy5dIpcjniMXIZiuB+HqDvHmdfft54y1UKpJJZqYZGuTGdVZXSKdxOnG5cTgZG0Wvw121yZ5locDwEEOD3L7JygrxOCYTVR4uXaC5haYWGuq3XtX+SSyWVstrb/DaG3eNs05He4do7ygvKuVSQOTzON04nfdcZ1c3be3i2OuEw0RC2Ow4XRXNpDu43Rw6zKHDIhIhHCYSxmymtlYajHdHQKNG9PXT1w8QXBJzc7S24fF8qoU6mltEcwvraywvk06X1V2lxSI+vbTavYfde+6ZH3k84pvf5sgxgksVQfSaWulw3K2WDfh8+Hy8cohMRiwFSGcQ4K+pZIY9Eo2GO42/D6cTp3OT4HivD6+Po6/efcdioamZb/+mWFoilQLw+3G57v/iJwu+e65Ro+H7v3P3ZS7LyDDBIL297N1HTa0AVle4eYPpKTk0eDcV5o23eOOtu1/UarF20tFJaF1MTVY8Ca1tSuWFLwOFItlPskQeRG+oPIzLy5w9w7t/La9cxmZHqwGB14uUTIxTLHLosPB4iUY4d1amUhw6LO7oeUaiTIxz4ZxsbCKTFcUCq6tcuSyF4JVD4r6nqVQiGuUX73P8Q8ZGpcOJ1UY6RTJBPM71a4yPUlsn0mlWgrIsWJpKE4sRDsuNKIk4f/3vuXmDUEh6POh0hEOo1bjc/PAPhU5PczPRKBMTnDohyy0XAqsVp1OE11kOyiuXGbyN95NSWKEQ8TheL+98i117HpG+9vhIydoqQ0OcPimTSUwmikWqPBXxUq9X/OVfyMFb2O04nJjNLC4Sj6NWkc2K9naqPKytcvqUjEZFtZ/efsJhblyTkxOsriIlJjNuN6EQsRgaNetrHH0VjYZolLMf86tfcvxDabWi1ZLOoNViMhEO09jIvv1Cp72/qZkMZ07L93/G9atAJQuzWCKfY98B3nhLvPkW5fi1LWSLvTZaDWaLqGugVEKn2yT8Ua2u+E/dLrRadPrPdByVpdzLOT1Go3hwzlXG4USr3XxFDFhtaLQUC6jVGE2Pu59pMlFTU/HblhNBNu10rRavj2LlsMc689ai1eDxfNKAJ12Gl0W2Ll2Q167QPyB27QFYmOfER3J0BLMJr1e6q8SDVVTuYLHS0oaU5U5+wmYovFCMDsuNKGc+3nyN9YMfitffBJiZ5r13ZSTC9p1861tU+ymVOHeWa1e3uD2xDRJJRobJF+Qbb4k9e+nqplhkdESeOM7SEnNzZDJs28Y//2Pxr/5UXjhHX784fIRjr7K8zK2bzEzLqipee13s2IXPRyjEpYvy7Md89KHMZsUPfgjlRJ0c7ioOHhKNTVRX46tmfpZLFymWOPoqb7xJU7MALl+SF88zPU1gkcDnDHd6TDxeunvYvYfWNixWMTLEP/6D3Nhg915+9/eExweS0VGuXJInj7O6wszMZy6I8wXMFr75LfoGhN/P7Vtcu8qVyzK0zuQ4RhMLC5w4LldX2HeAV16hpY10Wly/Ko9/9JnNi8fJZrl1k8UFmprFwUMcPkIuK2dmOH1KrKzIn/1UNjYKjxeLZSu3tbbYYqnU6NUPi9MXAoPhsYKedTp0Oh5ZsOLhkpR6/ZMkDWi1aB9joaBWP+eCGqqtaIAQmMwA4+MkEnJ9XQBrawwNotOxczcNjdhsUvXZCY1P1skKLzKxGPkC6+ubTyi//g6lEtkMi4tcvUxzC319vPk1mpoqGZbTU1u8hVmSqFXU1UunUwzsYOcuWtvIZsjnxfXrcm6WSIR8nmo/1X5+/C46HX4/7Z30b2f8XW7fYnWF9k56eunpwecnHiO4JEAOD2EyyX/yW6K8T1Ms4nTx+hts68XrI5dFJSpbWV097D8o/DVkM6yvMTlBeVcstI72KTjAfT527+Ht36Cjg2yuUv2nv5+ubo68itHAxga5HPOzQkoZCbMUoKV181OpVNjtHD4qjhylykOVh1KJ4SGSSdbW0OqYn2N8DL2e/Qd44216+8hm0enErZsy9Rk74tEIsXglPqu5hY5O+gfIZtHqGB8jsMjCHPPzbItiMr3AFkvhpUOjZd9+tBrxwQeMj3HxggRMJnw+Dh/l9TdFVw96vRL199WiqoqmZpqaxabei4ZG8nlWVwmtk8ngrxGdXRWRlFKJphZa2xke3iJPGQA2G952/rv/QcQ2iMXIZrh2hWCQWzcrZuMhdetXluXCPNkchQLJJFevoNFSKhJYRK8nGiUaIZWU+VzlFnfY2bGTpuZKUrzDSf+ASKVIp0kkuHie5SAjIywHyWQoFkilMD+Fp8Nfw959wl+D2YJJ8vbXOHBQZNMykyW0TmCR2Rnm5hgdJZcjlSYaIZ/b/FQmEw4nfj9OF0LgcOCrvrvJEomwskwuR30D+w+IujosZkwmGhvp7yce3/ycq6tMThCNolZjMMq5OfHz95ElEQ5XIgCKRULrhNeprt7KblEs1lcdlaqiJmy2EFis6DEajbjddHaLrm7sdsVcfeWo8tDTK/btx+vb5NPGxop+TXnHyO2mphaDoTKV9njw+9E9kJhYLJLNPoa23meQSTM6zNgos7MkEhWdndC6LBbgocYxnyefR6MhnWJu5u774bA0m6mqwmYnlSKTqQTWu9xYrXf9QNEIU5NMjDMzQ2yDTIZi6ZM4dYGUlEpbto/1acoFyh2OSkxmIU9ojevXmZkmtiETCZFOo1JTLEigVKyUON8Uk6mcI1tZ+KrVd3MMgES8ogRkNlNTi8WCSo0K7A4amwbonFAAAApfSURBVLl5sxJcdh9lgbdigWKBVJLAggytCSCbrRQ9L9v7VHqLkzIVi/VVpzzncjjo7qm88Xzbo/Ai4HKJ9g4OHKShcfMDkgnyOfIFAIsVh6Mi1CkENisO5ybBfvkcySSFOxZLIuXjjvWZDIm4/Pu/4+wZFhdQq7HaaGmpRP1Fwo/4ukqg01LIEwpJQeUeLxVxuSslznN5kc2iUuFw4nLdDdwvFpmf5+9/Ii9dZGK8Egzpr8FmFSYzavVTsFSfYLPf0/kLC5w4zk9+zMgwOj0Oh/R4aGzCbLlfdfdBjMZK/fRNKeeZFYtotJgt3JGvMxpxVwmDQW5qse5QKpHNEo+TSklASoSgylOJgZRbrSGgWCwFBYXPjUp1N2JwdVnOz9GzTQBSEo6wusqD1XzicQIBOrsqL/MFMmn5mEuuYJDloBgblULwxlti5y66erBYmJuRH5/+TM/VHUqSbJaOLv7on5V1AASwssL8HLkcvmqamigWEOVNWUPFqVAoEFxieIjLF9Fq+I2vs2s3Tc3Y7GJynOvXGB157P76wgwN8nfvSaESb77NwVfw12KzEotx+ZK8eOELndlsxu5AoyEWZXIcvb6iwR2NMjEuN2KPmMM6XRw4KLZto1yQL50mFGI5SDxB/4Bsan5y/Y5NUSyWgoLC/eQLMpUS0ejmUbgqNbKExYLNjtFIMMjwED29SFCrmZm+m874aSIRpiYY2E61n0yapQALC5XcjEcSj7G8zNoaGi1d3Rw5xs5dxGIkEyKf28TslU1UKkk8jtki3FVyZhohyuIswuGsLBDHRiv1QSxW9AYQlSIdZYtVrpgTWmdxkZYWOjo59hqtbaJQYHWZWGwTq/w0KIsQrizL0RG6umVrq3jtDfw1CLhwnmzmEU7RR1J26hpNrIe4eAGdHgH5PONjjIywEd2kXDtgseKvwWgkn0dKXG66t6HVsr5GLEYuRzaDzYbTKdXqrXTbKBZLQUHhflJJ1lbl7IzIpDf51GDEasXjpboal5tAgAvnqasnHMJq5fo1OXR7E1O0usqtW3LvfuF0Egxy9QpXLhHbLN/rIWjUGIxoNGQyTE1y/SoXzhMKVTQv7lAosLEhV1cJBER1Nb19YnhQjo3yVz8S73yLrm6iYU6f5G//g6z2c/AQx17dZFQta6LeWXIJgV4v8jlmZ7hymfNn5WcVUN1aSkUyGSklej3FIoWC1Osp5MX6OieOyzMfP0Jo/5HU1km1GqeTuVl+/jNZKonVFaIRLl/i9g1i8c0tlr8Gn59f/4LpKY5/KLVaUc4Sm5jg3b+R5WDRffvZ9oWatgmKxVJQULifQIAL51hckJumT3h9tHeIN9+mu4c/+CHDQ6yucOK4vHypokARWr9Hhs5uZ/cecfuWnJrkx/9RXrqAhGiErh5Ghh+rPX4/egN19SzM8/EpuTCPy8XKCstBnC5SqUoBqsZGfNVYrBgNTE2i0ZDN0NXD3n2MjTI3y8XzMh7D6yOdYn4OoaKnlx07xaYZMuVtrbo62tpEKiXPnK4Ea4TWWVnGV006TSbL2urTDU0SKrRaUV8vd+xkdbWSHKbTyXSK6WkAixWJjMXFZ0n/PRyjUTQ1y+9+j5s3mZ3h1k05NoqEaBibnUymIiyi0cKnTKPFgt3BwcMik5WzM5z4SAYWMZqIRpmZpqqKnm1UV6PVbnHXKBZLQUHhLgYD1dXEYywusLiw+TFNzRTy8pVDoqMTj1d89KH8+BRXLxOJgET3QC6Ey83RV8nnxcen5NmPMVuoq6OzSxx7lVJRulyoVaDGYMBdVUnZ1OkwGqmqQm/AYKCunroGevuIhBka5OaNSsZ6TS29fcJgkKUS4RChEF4fNTXUNxAIMD5GoSAHdohtvUxNUSpx/SqnTyJBpaKqio4OXn1NHDqC2YJOVxa5uCvkqlLhcNDUzO69XL0iRkflyDAI1Cp6+9m5u6KLkUxV9FGrPDid6PU8JN2+jFqD3YHbjeqB7FWDoRJ9fqega9lgtLaLw0f56EM5Mc7kZGX919pKQyNWW7mqiAShN+Dz4XZjNqNRo9fhcmE04nDcDanQaDAZqfJU9Ia0Oux28RvvUFPHmdPyxjXGAhVNjbo6kgnUakxmTCbyOdxuhKjId1VVcfQYpaJ4b01OTTExjhAYTbir2LlbvPU2jU1bn6km5L3BOvJpxGkqKCi8JCwHGRx8xA6N2YzTRXMLen0lMWs5yPx8RZ61kGdmmp/8WB54hf/yvxLtnVitrK4yN8PMDPE4Bj0trbjcGI2srWI0sq0PKSsVAwQ0taDVkssyM4NaRVMLNisIJicIBFhbJR4jn6eqSrqrqPKIZAIpaWjE/f+3dy89bVxhGMf/J8YztoPHBl+wDS24UXpZtoF2k5Jl1W9WqZWifpGq7SdoF0BJlFV6WZRgEqBcgi8w2CS24XQxU4hUQriYKCM9v7XHHntxHs/x+H3yeB5PlqjVWF/DHnFzmOkZxkqsr7G6ytrqyTDyXI5CkclJcnkch1aLnee02ySTTFVPgmR3l2dPWV9ncwN/j6Ehm89THCOTNc0mrkOpTCrFkWVlmbhDtcpw+g1DEoI5fp1O+GaPJ8xZy/YW29s836YyzsefnBzSbLK9xdqq3digvmMcl0yGUolkil43nJg+PkGnzR+/k/YoFikUeXFArcbhIYkE1SppD6DTodmgViOZYOoDrKXV5PFjDJTK9qBDr2fiDk/+tg8W+W2B0Rzf3Te3b9PrUavR6zJVJTsSTtfd3KC2bLc2abWM65LJUi5TKjM2Rtob2GyB46oNJZaIXFW/j+/z4oCXXRp1Hi7y/X376WdhYgWzBDsdfJ99n6EhKpVLfvsObqT29+j3yeVe293e7VKvh0Oic/lwNMzBAb6P73N0yHCadPoCI2Pa7ZOTz+VsImneZhNeIBgite/bnR3juqQ9hocHEAm+T22Zn3/EceydaSrjJpOl12V+jp9+sEtLvD/JN9+aDz86/fDDQ7ovbbNpdls4Luk0ufybrzIv6jixtCsoIlcVi5HJ4HlhDdWpkklcN2zFvfSK5jiMjJDNBruC/y+5C8Xj4UBeIPbf35WCzcbR0bAB60Kjg4LCjmBP7MaN177utQpuaxwZMV7mrIboiwr+7fvXn3Z9jUcPuTtL9RbNBvNzPFgkX2Bi4qwehliMRNKMuRSKGIMxg4+rVymxROSqgqUKzkqCgaxl53ySUx92lRMIjr3Wtficp2Fi5+qQPL9g6uD0jHEcu/EPv/5iF+bp9/H3KFfM7D375b3Tbxd89aze2oejxBKRQYrHSXuMj1MomETi5BJH3llehruzJJNmYc6urFCvk3ApVbgzw1df8/kX19jQeFH6HUtEBqnTptHk2VM8j4n3SKXU7fmu6/fZ92m1aDTC+seggjJ1M2z+G9QO5KXpzgsREYmG48TSFbuIiESDEktERKJBiSUiItGgxBIRkWhQYomISDQosUREJBqUWCIiEg1KLBERiQYlloiIRIMSS0REokGJJSIi0aDEEhGRaFBiiYhINCixREQkGpRYIiISDUosERGJhn8B0alLJaTg0IYAAAAASUVORK5CYII=;" vertex="1" parent="7">
                    <mxGeometry x="460" y="170" width="571" height="340" as="geometry"/>
                </mxCell>
                <mxCell id="51" value="Your triangle is a Right Triangle." style="text;html=1;align=left;verticalAlign=middle;resizable=0;points=[];autosize=1;strokeColor=none;fillColor=none;fontSize=24;fontColor=#000000;" vertex="1" parent="7">
                    <mxGeometry x="30" y="420" width="360" height="40" as="geometry"/>
                </mxCell>
            </root>
        </mxGraphModel>
    </diagram>
</mxfile>